<svg width="374" height="208" viewBox="0 0 374 208" fill="none" xmlns="http://www.w3.org/2000/svg">
<rect x="1.5" y="1.5" width="371" height="205" rx="18.5" stroke="url(#paint0_linear_21_148)" stroke-width="3"/>
<path d="M46.7659 86.625V97.7C46.7659 99.0167 47.1076 100.008 47.7909 100.675C48.4909 101.342 49.4576 101.675 50.6909 101.675C51.9409 101.675 52.9076 101.342 53.5909 100.675C54.2909 100.008 54.6409 99.0167 54.6409 97.7V86.625H57.4909V97.65C57.4909 99.0667 57.1826 100.267 56.5659 101.25C55.9493 102.233 55.1243 102.967 54.0909 103.45C53.0576 103.933 51.9159 104.175 50.6659 104.175C49.4159 104.175 48.2743 103.933 47.2409 103.45C46.2243 102.967 45.4159 102.233 44.8159 101.25C44.2159 100.267 43.9159 99.0667 43.9159 97.65V86.625H46.7659ZM64.0517 92.25C64.535 91.6167 65.1933 91.0833 66.0267 90.65C66.86 90.2167 67.8017 90 68.8517 90C70.0517 90 71.1433 90.3 72.1267 90.9C73.1267 91.4833 73.91 92.3083 74.4767 93.375C75.0433 94.4417 75.3267 95.6667 75.3267 97.05C75.3267 98.4333 75.0433 99.675 74.4767 100.775C73.91 101.858 73.1267 102.708 72.1267 103.325C71.1433 103.925 70.0517 104.225 68.8517 104.225C67.8017 104.225 66.8683 104.017 66.0517 103.6C65.235 103.167 64.5683 102.633 64.0517 102V110.55H61.2017V90.225H64.0517V92.25ZM72.4267 97.05C72.4267 96.1 72.2267 95.2833 71.8267 94.6C71.4433 93.9 70.9267 93.375 70.2767 93.025C69.6433 92.6583 68.96 92.475 68.2267 92.475C67.51 92.475 66.8267 92.6583 66.1767 93.025C65.5433 93.3917 65.0267 93.925 64.6267 94.625C64.2433 95.325 64.0517 96.15 64.0517 97.1C64.0517 98.05 64.2433 98.8833 64.6267 99.6C65.0267 100.3 65.5433 100.833 66.1767 101.2C66.8267 101.567 67.51 101.75 68.2267 101.75C68.96 101.75 69.6433 101.567 70.2767 101.2C70.9267 100.817 71.4433 100.267 71.8267 99.55C72.2267 98.8333 72.4267 98 72.4267 97.05ZM80.995 85.5V104H78.145V85.5H80.995ZM90.7118 104.225C89.4118 104.225 88.2368 103.933 87.1868 103.35C86.1368 102.75 85.3118 101.917 84.7118 100.85C84.1118 99.7667 83.8118 98.5167 83.8118 97.1C83.8118 95.7 84.1201 94.4583 84.7368 93.375C85.3535 92.2917 86.1951 91.4583 87.2618 90.875C88.3285 90.2917 89.5201 90 90.8368 90C92.1535 90 93.3452 90.2917 94.4118 90.875C95.4785 91.4583 96.3202 92.2917 96.9368 93.375C97.5535 94.4583 97.8618 95.7 97.8618 97.1C97.8618 98.5 97.5452 99.7417 96.9118 100.825C96.2785 101.908 95.4118 102.75 94.3118 103.35C93.2285 103.933 92.0285 104.225 90.7118 104.225ZM90.7118 101.75C91.4451 101.75 92.1285 101.575 92.7618 101.225C93.4118 100.875 93.9368 100.35 94.3368 99.65C94.7368 98.95 94.9368 98.1 94.9368 97.1C94.9368 96.1 94.7451 95.2583 94.3618 94.575C93.9785 93.875 93.4702 93.35 92.8368 93C92.2035 92.65 91.5202 92.475 90.7868 92.475C90.0535 92.475 89.3701 92.65 88.7368 93C88.1202 93.35 87.6285 93.875 87.2618 94.575C86.8952 95.2583 86.7118 96.1 86.7118 97.1C86.7118 98.5833 87.0868 99.7333 87.8368 100.55C88.6035 101.35 89.5618 101.75 90.7118 101.75ZM99.7292 97.05C99.7292 95.6667 100.013 94.4417 100.579 93.375C101.163 92.3083 101.946 91.4833 102.929 90.9C103.929 90.3 105.029 90 106.229 90C107.313 90 108.254 90.2167 109.054 90.65C109.871 91.0667 110.521 91.5917 111.004 92.225V90.225H113.879V104H111.004V101.95C110.521 102.6 109.863 103.142 109.029 103.575C108.196 104.008 107.246 104.225 106.179 104.225C104.996 104.225 103.913 103.925 102.929 103.325C101.946 102.708 101.163 101.858 100.579 100.775C100.013 99.675 99.7292 98.4333 99.7292 97.05ZM111.004 97.1C111.004 96.15 110.804 95.325 110.404 94.625C110.021 93.925 109.513 93.3917 108.879 93.025C108.246 92.6583 107.563 92.475 106.829 92.475C106.096 92.475 105.413 92.6583 104.779 93.025C104.146 93.375 103.629 93.9 103.229 94.6C102.846 95.2833 102.654 96.1 102.654 97.05C102.654 98 102.846 98.8333 103.229 99.55C103.629 100.267 104.146 100.817 104.779 101.2C105.429 101.567 106.113 101.75 106.829 101.75C107.563 101.75 108.246 101.567 108.879 101.2C109.513 100.833 110.021 100.3 110.404 99.6C110.804 98.8833 111.004 98.05 111.004 97.1ZM116.673 97.05C116.673 95.6667 116.956 94.4417 117.523 93.375C118.106 92.3083 118.889 91.4833 119.873 90.9C120.873 90.3 121.981 90 123.198 90C124.098 90 124.981 90.2 125.848 90.6C126.731 90.9833 127.431 91.5 127.948 92.15V85.5H130.823V104H127.948V101.925C127.481 102.592 126.831 103.142 125.998 103.575C125.181 104.008 124.239 104.225 123.173 104.225C121.973 104.225 120.873 103.925 119.873 103.325C118.889 102.708 118.106 101.858 117.523 100.775C116.956 99.675 116.673 98.4333 116.673 97.05ZM127.948 97.1C127.948 96.15 127.748 95.325 127.348 94.625C126.964 93.925 126.456 93.3917 125.823 93.025C125.189 92.6583 124.506 92.475 123.773 92.475C123.039 92.475 122.356 92.6583 121.723 93.025C121.089 93.375 120.573 93.9 120.173 94.6C119.789 95.2833 119.598 96.1 119.598 97.05C119.598 98 119.789 98.8333 120.173 99.55C120.573 100.267 121.089 100.817 121.723 101.2C122.373 101.567 123.056 101.75 123.773 101.75C124.506 101.75 125.189 101.567 125.823 101.2C126.456 100.833 126.964 100.3 127.348 99.6C127.748 98.8833 127.948 98.05 127.948 97.1ZM153.46 90.225L145.01 110.475H142.06L144.86 103.775L139.435 90.225H142.61L146.485 100.725L150.51 90.225H153.46ZM161.586 104.225C160.286 104.225 159.111 103.933 158.061 103.35C157.011 102.75 156.186 101.917 155.586 100.85C154.986 99.7667 154.686 98.5167 154.686 97.1C154.686 95.7 154.994 94.4583 155.611 93.375C156.228 92.2917 157.069 91.4583 158.136 90.875C159.203 90.2917 160.394 90 161.711 90C163.028 90 164.219 90.2917 165.286 90.875C166.353 91.4583 167.194 92.2917 167.811 93.375C168.428 94.4583 168.736 95.7 168.736 97.1C168.736 98.5 168.419 99.7417 167.786 100.825C167.153 101.908 166.286 102.75 165.186 103.35C164.103 103.933 162.903 104.225 161.586 104.225ZM161.586 101.75C162.319 101.75 163.003 101.575 163.636 101.225C164.286 100.875 164.811 100.35 165.211 99.65C165.611 98.95 165.811 98.1 165.811 97.1C165.811 96.1 165.619 95.2583 165.236 94.575C164.853 93.875 164.344 93.35 163.711 93C163.078 92.65 162.394 92.475 161.661 92.475C160.928 92.475 160.244 92.65 159.611 93C158.994 93.35 158.503 93.875 158.136 94.575C157.769 95.2583 157.586 96.1 157.586 97.1C157.586 98.5833 157.961 99.7333 158.711 100.55C159.478 101.35 160.436 101.75 161.586 101.75ZM184.028 90.225V104H181.178V102.375C180.728 102.942 180.137 103.392 179.403 103.725C178.687 104.042 177.92 104.2 177.103 104.2C176.02 104.2 175.045 103.975 174.178 103.525C173.328 103.075 172.653 102.408 172.153 101.525C171.67 100.642 171.428 99.575 171.428 98.325V90.225H174.253V97.9C174.253 99.1333 174.562 100.083 175.178 100.75C175.795 101.4 176.637 101.725 177.703 101.725C178.77 101.725 179.612 101.4 180.228 100.75C180.862 100.083 181.178 99.1333 181.178 97.9V90.225H184.028ZM190.639 92.225C191.055 91.525 191.605 90.9833 192.289 90.6C192.989 90.2 193.814 90 194.764 90V92.95H194.039C192.922 92.95 192.072 93.2333 191.489 93.8C190.922 94.3667 190.639 95.35 190.639 96.75V104H187.789V90.225H190.639V92.225ZM202.927 97.05C202.927 95.6667 203.211 94.4417 203.777 93.375C204.361 92.3083 205.144 91.4833 206.127 90.9C207.127 90.3 208.236 90 209.452 90C210.352 90 211.236 90.2 212.102 90.6C212.986 90.9833 213.686 91.5 214.202 92.15V85.5H217.077V104H214.202V101.925C213.736 102.592 213.086 103.142 212.252 103.575C211.436 104.008 210.494 104.225 209.427 104.225C208.227 104.225 207.127 103.925 206.127 103.325C205.144 102.708 204.361 101.858 203.777 100.775C203.211 99.675 202.927 98.4333 202.927 97.05ZM214.202 97.1C214.202 96.15 214.002 95.325 213.602 94.625C213.219 93.925 212.711 93.3917 212.077 93.025C211.444 92.6583 210.761 92.475 210.027 92.475C209.294 92.475 208.611 92.6583 207.977 93.025C207.344 93.375 206.827 93.9 206.427 94.6C206.044 95.2833 205.852 96.1 205.852 97.05C205.852 98 206.044 98.8333 206.427 99.55C206.827 100.267 207.344 100.817 207.977 101.2C208.627 101.567 209.311 101.75 210.027 101.75C210.761 101.75 211.444 101.567 212.077 101.2C212.711 100.833 213.219 100.3 213.602 99.6C214.002 98.8833 214.202 98.05 214.202 97.1ZM233.446 96.775C233.446 97.2917 233.412 97.7583 233.346 98.175H222.821C222.904 99.275 223.312 100.158 224.046 100.825C224.779 101.492 225.679 101.825 226.746 101.825C228.279 101.825 229.362 101.183 229.996 99.9H233.071C232.654 101.167 231.896 102.208 230.796 103.025C229.712 103.825 228.362 104.225 226.746 104.225C225.429 104.225 224.246 103.933 223.196 103.35C222.162 102.75 221.346 101.917 220.746 100.85C220.162 99.7667 219.871 98.5167 219.871 97.1C219.871 95.6833 220.154 94.4417 220.721 93.375C221.304 92.2917 222.112 91.4583 223.146 90.875C224.196 90.2917 225.396 90 226.746 90C228.046 90 229.204 90.2833 230.221 90.85C231.237 91.4167 232.029 92.2167 232.596 93.25C233.162 94.2667 233.446 95.4417 233.446 96.775ZM230.471 95.875C230.454 94.825 230.079 93.9833 229.346 93.35C228.612 92.7167 227.704 92.4 226.621 92.4C225.637 92.4 224.796 92.7167 224.096 93.35C223.396 93.9667 222.979 94.8083 222.846 95.875H230.471ZM241.25 104.225C240.167 104.225 239.192 104.033 238.325 103.65C237.475 103.25 236.8 102.717 236.3 102.05C235.8 101.367 235.534 100.608 235.5 99.775H238.45C238.5 100.358 238.775 100.85 239.275 101.25C239.792 101.633 240.434 101.825 241.2 101.825C242 101.825 242.617 101.675 243.05 101.375C243.5 101.058 243.725 100.658 243.725 100.175C243.725 99.6583 243.475 99.275 242.975 99.025C242.492 98.775 241.717 98.5 240.65 98.2C239.617 97.9167 238.775 97.6417 238.125 97.375C237.475 97.1083 236.909 96.7 236.425 96.15C235.959 95.6 235.725 94.875 235.725 93.975C235.725 93.2417 235.942 92.575 236.375 91.975C236.809 91.3583 237.425 90.875 238.225 90.525C239.042 90.175 239.975 90 241.025 90C242.592 90 243.85 90.4 244.8 91.2C245.767 91.9833 246.284 93.0583 246.35 94.425H243.5C243.45 93.8083 243.2 93.3167 242.75 92.95C242.3 92.5833 241.692 92.4 240.925 92.4C240.175 92.4 239.6 92.5417 239.2 92.825C238.8 93.1083 238.6 93.4833 238.6 93.95C238.6 94.3167 238.734 94.625 239 94.875C239.267 95.125 239.592 95.325 239.975 95.475C240.359 95.6083 240.925 95.7833 241.675 96C242.675 96.2667 243.492 96.5417 244.125 96.825C244.775 97.0917 245.334 97.4917 245.8 98.025C246.267 98.5583 246.509 99.2667 246.525 100.15C246.525 100.933 246.309 101.633 245.875 102.25C245.442 102.867 244.825 103.35 244.025 103.7C243.242 104.05 242.317 104.225 241.25 104.225ZM251.055 88.4C250.538 88.4 250.105 88.225 249.755 87.875C249.405 87.525 249.23 87.0917 249.23 86.575C249.23 86.0583 249.405 85.625 249.755 85.275C250.105 84.925 250.538 84.75 251.055 84.75C251.555 84.75 251.98 84.925 252.33 85.275C252.68 85.625 252.855 86.0583 252.855 86.575C252.855 87.0917 252.68 87.525 252.33 87.875C251.98 88.225 251.555 88.4 251.055 88.4ZM252.455 90.225V104H249.605V90.225H252.455ZM261.747 90C262.813 90 263.755 90.2167 264.572 90.65C265.405 91.0667 266.055 91.5917 266.522 92.225V90.225H269.397V104.225C269.397 105.492 269.13 106.617 268.597 107.6C268.063 108.6 267.288 109.383 266.272 109.95C265.272 110.517 264.072 110.8 262.672 110.8C260.805 110.8 259.255 110.358 258.022 109.475C256.788 108.608 256.088 107.425 255.922 105.925H258.747C258.963 106.642 259.422 107.217 260.122 107.65C260.838 108.1 261.688 108.325 262.672 108.325C263.822 108.325 264.747 107.975 265.447 107.275C266.163 106.575 266.522 105.558 266.522 104.225V101.925C266.038 102.575 265.38 103.125 264.547 103.575C263.73 104.008 262.797 104.225 261.747 104.225C260.547 104.225 259.447 103.925 258.447 103.325C257.463 102.708 256.68 101.858 256.097 100.775C255.53 99.675 255.247 98.4333 255.247 97.05C255.247 95.6667 255.53 94.4417 256.097 93.375C256.68 92.3083 257.463 91.4833 258.447 90.9C259.447 90.3 260.547 90 261.747 90ZM266.522 97.1C266.522 96.15 266.322 95.325 265.922 94.625C265.538 93.925 265.03 93.3917 264.397 93.025C263.763 92.6583 263.08 92.475 262.347 92.475C261.613 92.475 260.93 92.6583 260.297 93.025C259.663 93.375 259.147 93.9 258.747 94.6C258.363 95.2833 258.172 96.1 258.172 97.05C258.172 98 258.363 98.8333 258.747 99.55C259.147 100.267 259.663 100.817 260.297 101.2C260.947 101.567 261.63 101.75 262.347 101.75C263.08 101.75 263.763 101.567 264.397 101.2C265.03 100.833 265.538 100.3 265.922 99.6C266.322 98.8833 266.522 98.05 266.522 97.1ZM280.09 90C281.173 90 282.14 90.225 282.99 90.675C283.857 91.125 284.532 91.7917 285.015 92.675C285.498 93.5583 285.74 94.625 285.74 95.875V104H282.915V96.3C282.915 95.0667 282.607 94.125 281.99 93.475C281.373 92.8083 280.532 92.475 279.465 92.475C278.398 92.475 277.548 92.8083 276.915 93.475C276.298 94.125 275.99 95.0667 275.99 96.3V104H273.14V90.225H275.99V91.8C276.457 91.2333 277.048 90.7917 277.765 90.475C278.498 90.1583 279.273 90 280.09 90ZM301.195 101.45L305.095 90.225H308.12L302.87 104H299.47L294.245 90.225H297.295L301.195 101.45ZM311.724 88.4C311.207 88.4 310.774 88.225 310.424 87.875C310.074 87.525 309.899 87.0917 309.899 86.575C309.899 86.0583 310.074 85.625 310.424 85.275C310.774 84.925 311.207 84.75 311.724 84.75C312.224 84.75 312.649 84.925 312.999 85.275C313.349 85.625 313.524 86.0583 313.524 86.575C313.524 87.0917 313.349 87.525 312.999 87.875C312.649 88.225 312.224 88.4 311.724 88.4ZM313.124 90.225V104H310.274V90.225H313.124ZM315.916 97.05C315.916 95.6667 316.199 94.4417 316.766 93.375C317.349 92.3083 318.132 91.4833 319.116 90.9C320.116 90.3 321.216 90 322.416 90C323.499 90 324.441 90.2167 325.241 90.65C326.057 91.0667 326.707 91.5917 327.191 92.225V90.225H330.066V104H327.191V101.95C326.707 102.6 326.049 103.142 325.216 103.575C324.382 104.008 323.432 104.225 322.366 104.225C321.182 104.225 320.099 103.925 319.116 103.325C318.132 102.708 317.349 101.858 316.766 100.775C316.199 99.675 315.916 98.4333 315.916 97.05ZM327.191 97.1C327.191 96.15 326.991 95.325 326.591 94.625C326.207 93.925 325.699 93.3917 325.066 93.025C324.432 92.6583 323.749 92.475 323.016 92.475C322.282 92.475 321.599 92.6583 320.966 93.025C320.332 93.375 319.816 93.9 319.416 94.6C319.032 95.2833 318.841 96.1 318.841 97.05C318.841 98 319.032 98.8333 319.416 99.55C319.816 100.267 320.332 100.817 320.966 101.2C321.616 101.567 322.299 101.75 323.016 101.75C323.749 101.75 324.432 101.567 325.066 101.2C325.699 100.833 326.207 100.3 326.591 99.6C326.991 98.8833 327.191 98.05 327.191 97.1ZM133.028 142.175C131.861 142.175 130.811 141.975 129.878 141.575C128.944 141.158 128.211 140.575 127.678 139.825C127.144 139.075 126.878 138.2 126.878 137.2H129.928C129.994 137.95 130.286 138.567 130.803 139.05C131.336 139.533 132.078 139.775 133.028 139.775C134.011 139.775 134.778 139.542 135.328 139.075C135.878 138.592 136.153 137.975 136.153 137.225C136.153 136.642 135.978 136.167 135.628 135.8C135.294 135.433 134.869 135.15 134.353 134.95C133.853 134.75 133.153 134.533 132.253 134.3C131.119 134 130.194 133.7 129.478 133.4C128.778 133.083 128.178 132.6 127.678 131.95C127.178 131.3 126.928 130.433 126.928 129.35C126.928 128.35 127.178 127.475 127.678 126.725C128.178 125.975 128.878 125.4 129.778 125C130.678 124.6 131.719 124.4 132.903 124.4C134.586 124.4 135.961 124.825 137.028 125.675C138.111 126.508 138.711 127.658 138.828 129.125H135.678C135.628 128.492 135.328 127.95 134.778 127.5C134.228 127.05 133.503 126.825 132.603 126.825C131.786 126.825 131.119 127.033 130.603 127.45C130.086 127.867 129.828 128.467 129.828 129.25C129.828 129.783 129.986 130.225 130.303 130.575C130.636 130.908 131.053 131.175 131.553 131.375C132.053 131.575 132.736 131.792 133.603 132.025C134.753 132.342 135.686 132.658 136.403 132.975C137.136 133.292 137.753 133.783 138.253 134.45C138.769 135.1 139.028 135.975 139.028 137.075C139.028 137.958 138.786 138.792 138.303 139.575C137.836 140.358 137.144 140.992 136.228 141.475C135.328 141.942 134.261 142.175 133.028 142.175ZM145.716 130.55V138.175C145.716 138.692 145.832 139.067 146.066 139.3C146.316 139.517 146.732 139.625 147.316 139.625H149.066V142H146.816C145.532 142 144.549 141.7 143.866 141.1C143.182 140.5 142.841 139.525 142.841 138.175V130.55H141.216V128.225H142.841V124.8H145.716V128.225H149.066V130.55H145.716ZM154.542 130.225C154.959 129.525 155.509 128.983 156.192 128.6C156.892 128.2 157.717 128 158.667 128V130.95H157.942C156.826 130.95 155.976 131.233 155.392 131.8C154.826 132.367 154.542 133.35 154.542 134.75V142H151.692V128.225H154.542V130.225ZM173.912 134.775C173.912 135.292 173.879 135.758 173.812 136.175H163.287C163.37 137.275 163.779 138.158 164.512 138.825C165.245 139.492 166.145 139.825 167.212 139.825C168.745 139.825 169.829 139.183 170.462 137.9H173.537C173.12 139.167 172.362 140.208 171.262 141.025C170.179 141.825 168.829 142.225 167.212 142.225C165.895 142.225 164.712 141.933 163.662 141.35C162.629 140.75 161.812 139.917 161.212 138.85C160.629 137.767 160.337 136.517 160.337 135.1C160.337 133.683 160.62 132.442 161.187 131.375C161.77 130.292 162.579 129.458 163.612 128.875C164.662 128.292 165.862 128 167.212 128C168.512 128 169.67 128.283 170.687 128.85C171.704 129.417 172.495 130.217 173.062 131.25C173.629 132.267 173.912 133.442 173.912 134.775ZM170.937 133.875C170.92 132.825 170.545 131.983 169.812 131.35C169.079 130.717 168.17 130.4 167.087 130.4C166.104 130.4 165.262 130.717 164.562 131.35C163.862 131.967 163.445 132.808 163.312 133.875H170.937ZM175.767 135.05C175.767 133.667 176.05 132.442 176.617 131.375C177.2 130.308 177.983 129.483 178.967 128.9C179.967 128.3 181.067 128 182.267 128C183.35 128 184.292 128.217 185.092 128.65C185.908 129.067 186.558 129.592 187.042 130.225V128.225H189.917V142H187.042V139.95C186.558 140.6 185.9 141.142 185.067 141.575C184.233 142.008 183.283 142.225 182.217 142.225C181.033 142.225 179.95 141.925 178.967 141.325C177.983 140.708 177.2 139.858 176.617 138.775C176.05 137.675 175.767 136.433 175.767 135.05ZM187.042 135.1C187.042 134.15 186.842 133.325 186.442 132.625C186.058 131.925 185.55 131.392 184.917 131.025C184.283 130.658 183.6 130.475 182.867 130.475C182.133 130.475 181.45 130.658 180.817 131.025C180.183 131.375 179.667 131.9 179.267 132.6C178.883 133.283 178.692 134.1 178.692 135.05C178.692 136 178.883 136.833 179.267 137.55C179.667 138.267 180.183 138.817 180.817 139.2C181.467 139.567 182.15 139.75 182.867 139.75C183.6 139.75 184.283 139.567 184.917 139.2C185.55 138.833 186.058 138.3 186.442 137.6C186.842 136.883 187.042 136.05 187.042 135.1ZM210.335 128C211.418 128 212.385 128.225 213.235 128.675C214.102 129.125 214.777 129.792 215.26 130.675C215.76 131.558 216.01 132.625 216.01 133.875V142H213.185V134.3C213.185 133.067 212.877 132.125 212.26 131.475C211.643 130.808 210.802 130.475 209.735 130.475C208.668 130.475 207.818 130.808 207.185 131.475C206.568 132.125 206.26 133.067 206.26 134.3V142H203.435V134.3C203.435 133.067 203.127 132.125 202.51 131.475C201.893 130.808 201.052 130.475 199.985 130.475C198.918 130.475 198.068 130.808 197.435 131.475C196.818 132.125 196.51 133.067 196.51 134.3V142H193.66V128.225H196.51V129.8C196.977 129.233 197.568 128.792 198.285 128.475C199.002 128.158 199.768 128 200.585 128C201.685 128 202.668 128.233 203.535 128.7C204.402 129.167 205.068 129.842 205.535 130.725C205.952 129.892 206.602 129.233 207.485 128.75C208.368 128.25 209.318 128 210.335 128ZM228.981 124.625V142H226.131V124.625H228.981ZM238.398 124.625C240.248 124.625 241.864 124.983 243.248 125.7C244.648 126.4 245.723 127.417 246.473 128.75C247.239 130.067 247.623 131.608 247.623 133.375C247.623 135.142 247.239 136.675 246.473 137.975C245.723 139.275 244.648 140.275 243.248 140.975C241.864 141.658 240.248 142 238.398 142H232.723V124.625H238.398ZM238.398 139.675C240.431 139.675 241.989 139.125 243.073 138.025C244.156 136.925 244.698 135.375 244.698 133.375C244.698 131.358 244.156 129.783 243.073 128.65C241.989 127.517 240.431 126.95 238.398 126.95H235.573V139.675H238.398Z" fill="url(#paint1_linear_21_148)"/>
<defs>
<linearGradient id="paint0_linear_21_148" x1="1.1631e-06" y1="11.5" x2="356.5" y2="208" gradientUnits="userSpaceOnUse">
<stop stop-color="#FF5A5A"/>
<stop offset="1" stop-color="#D11AFF"/>
</linearGradient>
<linearGradient id="paint1_linear_21_148" x1="42" y1="114" x2="332" y2="114" gradientUnits="userSpaceOnUse">
<stop stop-color="#FF5A5A"/>
<stop offset="1" stop-color="#D11AFF"/>
</linearGradient>
</defs>
</svg>
