<svg width="960" height="102" viewBox="0 0 960 102" fill="none" xmlns="http://www.w3.org/2000/svg">
<path d="M91.2956 16.56C92.869 16.8533 94.2023 17.6533 95.2956 18.96C96.389 20.2667 96.9356 21.7867 96.9356 23.52C96.9356 24.9333 96.5756 26.2133 95.8556 27.36C95.1623 28.48 94.1356 29.3733 92.7756 30.04C91.4156 30.68 89.789 31 87.8956 31H78.2156V3.04H87.6156C90.4423 3.04 92.589 3.69333 94.0556 5C95.549 6.30667 96.2956 8 96.2956 10.08C96.2956 11.8133 95.829 13.2267 94.8956 14.32C93.9623 15.3867 92.7623 16.1333 91.2956 16.56ZM81.0156 15.4H87.5356C89.429 15.4 90.8823 14.96 91.8956 14.08C92.9356 13.1733 93.4556 11.9333 93.4556 10.36C93.4556 8.81333 92.9356 7.6 91.8956 6.72C90.8823 5.84 89.389 5.4 87.4156 5.4H81.0156V15.4ZM87.6956 28.64C89.7223 28.64 91.2956 28.16 92.4156 27.2C93.5623 26.24 94.1356 24.92 94.1356 23.24C94.1356 21.56 93.5356 20.2267 92.3356 19.24C91.1623 18.2267 89.5756 17.72 87.5756 17.72H81.0156V28.64H87.6956ZM121.003 9.16V31H118.203V27.16C117.563 28.52 116.576 29.56 115.243 30.28C113.909 31 112.416 31.36 110.763 31.36C108.149 31.36 106.016 30.56 104.363 28.96C102.709 27.3333 101.883 24.9867 101.883 21.92V9.16H104.643V21.6C104.643 23.9733 105.229 25.7867 106.403 27.04C107.603 28.2933 109.229 28.92 111.283 28.92C113.389 28.92 115.069 28.2533 116.323 26.92C117.576 25.5867 118.203 23.6267 118.203 21.04V9.16H121.003ZM128.795 5.04C128.235 5.04 127.755 4.84 127.355 4.44C126.955 4.04 126.755 3.54667 126.755 2.96C126.755 2.37333 126.955 1.89333 127.355 1.52C127.755 1.12 128.235 0.919999 128.795 0.919999C129.355 0.919999 129.835 1.12 130.235 1.52C130.635 1.89333 130.835 2.37333 130.835 2.96C130.835 3.54667 130.635 4.04 130.235 4.44C129.835 4.84 129.355 5.04 128.795 5.04ZM130.195 9.16V31H127.395V9.16H130.195ZM139.336 1.4V31H136.536V1.4H139.336ZM144.397 20.04C144.397 17.8 144.85 15.84 145.757 14.16C146.663 12.4533 147.903 11.1467 149.477 10.24C151.077 9.30667 152.877 8.84 154.877 8.84C156.797 8.84 158.53 9.30667 160.077 10.24C161.623 11.1733 162.757 12.3867 163.477 13.88V1.4H166.277V31H163.477V26.12C162.81 27.64 161.717 28.8933 160.197 29.88C158.677 30.84 156.89 31.32 154.837 31.32C152.837 31.32 151.037 30.8533 149.437 29.92C147.863 28.9867 146.623 27.6667 145.717 25.96C144.837 24.2533 144.397 22.28 144.397 20.04ZM163.477 20.08C163.477 18.32 163.117 16.7733 162.397 15.44C161.677 14.1067 160.69 13.08 159.437 12.36C158.21 11.64 156.85 11.28 155.357 11.28C153.81 11.28 152.423 11.6267 151.197 12.32C149.97 13.0133 148.997 14.0267 148.277 15.36C147.583 16.6667 147.237 18.2267 147.237 20.04C147.237 21.8267 147.583 23.4 148.277 24.76C148.997 26.0933 149.97 27.12 151.197 27.84C152.423 28.5333 153.81 28.88 155.357 28.88C156.85 28.88 158.21 28.52 159.437 27.8C160.69 27.08 161.677 26.0533 162.397 24.72C163.117 23.3867 163.477 21.84 163.477 20.08ZM181.149 31.28C179.309 31.28 177.682 30.96 176.269 30.32C174.882 29.68 173.789 28.7867 172.989 27.64C172.189 26.4933 171.762 25.2133 171.709 23.8H174.669C174.802 25.16 175.402 26.36 176.469 27.4C177.535 28.4133 179.095 28.92 181.149 28.92C183.042 28.92 184.535 28.44 185.629 27.48C186.749 26.4933 187.309 25.2533 187.309 23.76C187.309 22.56 187.002 21.6 186.389 20.88C185.775 20.1333 185.015 19.5867 184.109 19.24C183.202 18.8667 181.949 18.4667 180.349 18.04C178.482 17.5333 177.002 17.04 175.909 16.56C174.815 16.08 173.882 15.3333 173.109 14.32C172.335 13.3067 171.949 11.9333 171.949 10.2C171.949 8.76 172.322 7.48 173.069 6.36C173.815 5.21333 174.869 4.32 176.229 3.68C177.589 3.04 179.149 2.72 180.909 2.72C183.495 2.72 185.575 3.36 187.149 4.64C188.749 5.89333 189.669 7.52 189.909 9.52H186.869C186.682 8.37333 186.055 7.36 184.989 6.48C183.922 5.57333 182.482 5.12 180.669 5.12C178.989 5.12 177.589 5.57333 176.469 6.48C175.349 7.36 174.789 8.57333 174.789 10.12C174.789 11.2933 175.095 12.24 175.709 12.96C176.322 13.68 177.082 14.2267 177.989 14.6C178.922 14.9733 180.175 15.3733 181.749 15.8C183.562 16.3067 185.029 16.8133 186.149 17.32C187.269 17.8 188.215 18.5467 188.989 19.56C189.762 20.5733 190.149 21.9333 190.149 23.64C190.149 24.9467 189.802 26.1867 189.109 27.36C188.415 28.5333 187.389 29.48 186.029 30.2C184.669 30.92 183.042 31.28 181.149 31.28ZM198.319 13.96C199.013 12.4933 200.106 11.28 201.599 10.32C203.119 9.33333 204.919 8.84 206.999 8.84C208.973 8.84 210.746 9.30667 212.319 10.24C213.919 11.1467 215.159 12.4533 216.039 14.16C216.946 15.84 217.399 17.8 217.399 20.04C217.399 22.28 216.946 24.2533 216.039 25.96C215.159 27.6667 213.919 28.9867 212.319 29.92C210.746 30.8533 208.973 31.32 206.999 31.32C204.946 31.32 203.159 30.84 201.639 29.88C200.119 28.8933 199.013 27.6667 198.319 26.2V41.32H195.559V9.16H198.319V13.96ZM214.559 20.04C214.559 18.2267 214.199 16.6667 213.479 15.36C212.786 14.0267 211.826 13.0133 210.599 12.32C209.373 11.6267 207.986 11.28 206.439 11.28C204.946 11.28 203.573 11.64 202.319 12.36C201.093 13.08 200.119 14.1067 199.399 15.44C198.679 16.7733 198.319 18.32 198.319 20.08C198.319 21.84 198.679 23.3867 199.399 24.72C200.119 26.0533 201.093 27.08 202.319 27.8C203.573 28.52 204.946 28.88 206.439 28.88C207.986 28.88 209.373 28.5333 210.599 27.84C211.826 27.12 212.786 26.0933 213.479 24.76C214.199 23.4 214.559 21.8267 214.559 20.04ZM232.952 8.76C234.605 8.76 236.085 9.10666 237.392 9.8C238.725 10.4933 239.765 11.56 240.512 13C241.285 14.4133 241.672 16.1467 241.672 18.2V31H238.912V18.52C238.912 16.1467 238.312 14.3333 237.112 13.08C235.938 11.8267 234.325 11.2 232.272 11.2C230.165 11.2 228.485 11.8667 227.232 13.2C225.978 14.5333 225.352 16.4933 225.352 19.08V31H222.552V1.4H225.352V12.88C226.045 11.5733 227.058 10.56 228.392 9.84C229.752 9.12 231.272 8.76 232.952 8.76ZM267.624 18.96C267.624 19.92 267.597 20.6533 267.544 21.16H249.424C249.504 22.8133 249.904 24.2267 250.624 25.4C251.344 26.5733 252.291 27.4667 253.464 28.08C254.637 28.6667 255.917 28.96 257.304 28.96C259.117 28.96 260.637 28.52 261.864 27.64C263.117 26.76 263.944 25.5733 264.344 24.08H267.304C266.771 26.2133 265.624 27.96 263.864 29.32C262.131 30.6533 259.944 31.32 257.304 31.32C255.251 31.32 253.411 30.8667 251.784 29.96C250.157 29.0267 248.877 27.72 247.944 26.04C247.037 24.3333 246.584 22.3467 246.584 20.08C246.584 17.8133 247.037 15.8267 247.944 14.12C248.851 12.4133 250.117 11.1067 251.744 10.2C253.371 9.29333 255.224 8.84 257.304 8.84C259.384 8.84 261.197 9.29333 262.744 10.2C264.317 11.1067 265.517 12.3333 266.344 13.88C267.197 15.4 267.624 17.0933 267.624 18.96ZM264.784 18.88C264.811 17.2533 264.477 15.8667 263.784 14.72C263.117 13.5733 262.197 12.7067 261.024 12.12C259.851 11.5333 258.571 11.24 257.184 11.24C255.104 11.24 253.331 11.9067 251.864 13.24C250.397 14.5733 249.584 16.4533 249.424 18.88H264.784ZM275.547 13.04C276.16 11.68 277.094 10.6267 278.347 9.88C279.627 9.13333 281.187 8.76 283.027 8.76V11.68H282.267C280.24 11.68 278.614 12.2267 277.387 13.32C276.16 14.4133 275.547 16.24 275.547 18.8V31H272.747V9.16H275.547V13.04ZM306.999 18.96C306.999 19.92 306.972 20.6533 306.919 21.16H288.799C288.879 22.8133 289.279 24.2267 289.999 25.4C290.719 26.5733 291.666 27.4667 292.839 28.08C294.012 28.6667 295.292 28.96 296.679 28.96C298.492 28.96 300.012 28.52 301.239 27.64C302.492 26.76 303.319 25.5733 303.719 24.08H306.679C306.146 26.2133 304.999 27.96 303.239 29.32C301.506 30.6533 299.319 31.32 296.679 31.32C294.626 31.32 292.786 30.8667 291.159 29.96C289.532 29.0267 288.252 27.72 287.319 26.04C286.412 24.3333 285.959 22.3467 285.959 20.08C285.959 17.8133 286.412 15.8267 287.319 14.12C288.226 12.4133 289.492 11.1067 291.119 10.2C292.746 9.29333 294.599 8.84 296.679 8.84C298.759 8.84 300.572 9.29333 302.119 10.2C303.692 11.1067 304.892 12.3333 305.719 13.88C306.572 15.4 306.999 17.0933 306.999 18.96ZM304.159 18.88C304.186 17.2533 303.852 15.8667 303.159 14.72C302.492 13.5733 301.572 12.7067 300.399 12.12C299.226 11.5333 297.946 11.24 296.559 11.24C294.479 11.24 292.706 11.9067 291.239 13.24C289.772 14.5733 288.959 16.4533 288.799 18.88H304.159ZM332.658 31.32C330.605 31.32 328.752 30.8667 327.098 29.96C325.472 29.0267 324.178 27.72 323.218 26.04C322.285 24.3333 321.818 22.3467 321.818 20.08C321.818 17.8133 322.298 15.84 323.258 14.16C324.218 12.4533 325.525 11.1467 327.178 10.24C328.832 9.30667 330.685 8.84 332.738 8.84C334.792 8.84 336.645 9.30667 338.298 10.24C339.978 11.1467 341.285 12.4533 342.218 14.16C343.178 15.84 343.658 17.8133 343.658 20.08C343.658 22.32 343.178 24.2933 342.218 26C341.258 27.7067 339.938 29.0267 338.258 29.96C336.578 30.8667 334.712 31.32 332.658 31.32ZM332.658 28.88C334.098 28.88 335.432 28.56 336.658 27.92C337.885 27.2533 338.872 26.2667 339.618 24.96C340.392 23.6267 340.778 22 340.778 20.08C340.778 18.16 340.405 16.5467 339.658 15.24C338.912 13.9067 337.925 12.92 336.698 12.28C335.472 11.6133 334.138 11.28 332.698 11.28C331.258 11.28 329.925 11.6133 328.698 12.28C327.472 12.92 326.485 13.9067 325.738 15.24C325.018 16.5467 324.658 18.16 324.658 20.08C324.658 22 325.018 23.6267 325.738 24.96C326.485 26.2667 327.458 27.2533 328.658 27.92C329.885 28.56 331.218 28.88 332.658 28.88ZM357.363 11.52H352.283V31H349.483V11.52H346.443V9.16H349.483V7.64C349.483 5.26666 350.083 3.52 351.283 2.4C352.509 1.28 354.483 0.719999 357.203 0.719999V3.12C355.389 3.12 354.109 3.46667 353.363 4.16C352.643 4.85333 352.283 6.01333 352.283 7.64V9.16H357.363V11.52ZM370.37 11.52H365.29V31H362.49V11.52H359.45V9.16H362.49V7.64C362.49 5.26666 363.09 3.52 364.29 2.4C365.517 1.28 367.49 0.719999 370.21 0.719999V3.12C368.397 3.12 367.117 3.46667 366.37 4.16C365.65 4.85333 365.29 6.01333 365.29 7.64V9.16H370.37V11.52ZM394.538 18.96C394.538 19.92 394.511 20.6533 394.458 21.16H376.338C376.418 22.8133 376.818 24.2267 377.538 25.4C378.258 26.5733 379.205 27.4667 380.378 28.08C381.551 28.6667 382.831 28.96 384.218 28.96C386.031 28.96 387.551 28.52 388.778 27.64C390.031 26.76 390.858 25.5733 391.258 24.08H394.218C393.685 26.2133 392.538 27.96 390.778 29.32C389.045 30.6533 386.858 31.32 384.218 31.32C382.165 31.32 380.325 30.8667 378.698 29.96C377.071 29.0267 375.791 27.72 374.858 26.04C373.951 24.3333 373.498 22.3467 373.498 20.08C373.498 17.8133 373.951 15.8267 374.858 14.12C375.765 12.4133 377.031 11.1067 378.658 10.2C380.285 9.29333 382.138 8.84 384.218 8.84C386.298 8.84 388.111 9.29333 389.658 10.2C391.231 11.1067 392.431 12.3333 393.258 13.88C394.111 15.4 394.538 17.0933 394.538 18.96ZM391.698 18.88C391.725 17.2533 391.391 15.8667 390.698 14.72C390.031 13.5733 389.111 12.7067 387.938 12.12C386.765 11.5333 385.485 11.24 384.098 11.24C382.018 11.24 380.245 11.9067 378.778 13.24C377.311 14.5733 376.498 16.4533 376.338 18.88H391.698ZM402.461 13.04C403.074 11.68 404.008 10.6267 405.261 9.88C406.541 9.13333 408.101 8.76 409.941 8.76V11.68H409.181C407.154 11.68 405.528 12.2267 404.301 13.32C403.074 14.4133 402.461 16.24 402.461 18.8V31H399.661V9.16H402.461V13.04ZM421.673 31.32C419.166 31.32 417.113 30.7467 415.513 29.6C413.94 28.4267 413.06 26.84 412.873 24.84H415.753C415.886 26.0667 416.46 27.0667 417.473 27.84C418.513 28.5867 419.9 28.96 421.633 28.96C423.153 28.96 424.34 28.6 425.193 27.88C426.073 27.16 426.513 26.2667 426.513 25.2C426.513 24.4533 426.273 23.84 425.793 23.36C425.313 22.88 424.7 22.5067 423.953 22.24C423.233 21.9467 422.246 21.64 420.993 21.32C419.366 20.8933 418.046 20.4667 417.033 20.04C416.02 19.6133 415.153 18.9867 414.433 18.16C413.74 17.3067 413.393 16.1733 413.393 14.76C413.393 13.6933 413.713 12.7067 414.353 11.8C414.993 10.8933 415.9 10.1733 417.073 9.64C418.246 9.10667 419.58 8.84 421.073 8.84C423.42 8.84 425.313 9.44 426.753 10.64C428.193 11.8133 428.966 13.44 429.073 15.52H426.273C426.193 14.24 425.686 13.2133 424.753 12.44C423.846 11.64 422.593 11.24 420.993 11.24C419.58 11.24 418.433 11.5733 417.553 12.24C416.673 12.9067 416.233 13.7333 416.233 14.72C416.233 15.5733 416.486 16.28 416.993 16.84C417.526 17.3733 418.18 17.8 418.953 18.12C419.726 18.4133 420.766 18.7467 422.073 19.12C423.646 19.5467 424.9 19.96 425.833 20.36C426.766 20.76 427.566 21.3467 428.233 22.12C428.9 22.8933 429.246 23.92 429.273 25.2C429.273 26.3733 428.953 27.4267 428.313 28.36C427.673 29.2667 426.78 29.9867 425.633 30.52C424.486 31.0533 423.166 31.32 421.673 31.32ZM766.74 80.04C766.74 77.8 767.18 75.84 768.06 74.16C768.967 72.4533 770.207 71.1467 771.78 70.24C773.38 69.3067 775.18 68.84 777.18 68.84C779.26 68.84 781.047 69.32 782.54 70.28C784.06 71.24 785.154 72.4667 785.82 73.96V69.16H788.62V91H785.82V86.16C785.127 87.6533 784.02 88.8933 782.5 89.88C781.007 90.84 779.22 91.32 777.14 91.32C775.167 91.32 773.38 90.8533 771.78 89.92C770.207 88.9867 768.967 87.6667 768.06 85.96C767.18 84.2533 766.74 82.28 766.74 80.04ZM785.82 80.08C785.82 78.32 785.46 76.7733 784.74 75.44C784.02 74.1067 783.034 73.08 781.78 72.36C780.554 71.64 779.194 71.28 777.7 71.28C776.154 71.28 774.767 71.6267 773.54 72.32C772.314 73.0133 771.34 74.0267 770.62 75.36C769.927 76.6667 769.58 78.2267 769.58 80.04C769.58 81.8267 769.927 83.4 770.62 84.76C771.34 86.0933 772.314 87.12 773.54 87.84C774.767 88.5333 776.154 88.88 777.7 88.88C779.194 88.88 780.554 88.52 781.78 87.8C783.034 87.08 784.02 86.0533 784.74 84.72C785.46 83.3867 785.82 81.84 785.82 80.08ZM805.253 68.76C807.866 68.76 809.999 69.5733 811.653 71.2C813.306 72.8 814.133 75.1333 814.133 78.2V91H811.373V78.52C811.373 76.1467 810.773 74.3333 809.573 73.08C808.399 71.8267 806.786 71.2 804.733 71.2C802.626 71.2 800.946 71.8667 799.693 73.2C798.439 74.5333 797.813 76.4933 797.813 79.08V91H795.013V69.16H797.813V72.88C798.506 71.5467 799.506 70.5333 800.813 69.84C802.119 69.12 803.599 68.76 805.253 68.76ZM819.045 80.04C819.045 77.8 819.498 75.84 820.405 74.16C821.312 72.4533 822.552 71.1467 824.125 70.24C825.725 69.3067 827.525 68.84 829.525 68.84C831.445 68.84 833.178 69.3067 834.725 70.24C836.272 71.1733 837.405 72.3867 838.125 73.88V61.4H840.925V91H838.125V86.12C837.458 87.64 836.365 88.8933 834.845 89.88C833.325 90.84 831.538 91.32 829.485 91.32C827.485 91.32 825.685 90.8533 824.085 89.92C822.512 88.9867 821.272 87.6667 820.365 85.96C819.485 84.2533 819.045 82.28 819.045 80.04ZM838.125 80.08C838.125 78.32 837.765 76.7733 837.045 75.44C836.325 74.1067 835.338 73.08 834.085 72.36C832.858 71.64 831.498 71.28 830.005 71.28C828.458 71.28 827.072 71.6267 825.845 72.32C824.618 73.0133 823.645 74.0267 822.925 75.36C822.232 76.6667 821.885 78.2267 821.885 80.04C821.885 81.8267 822.232 83.4 822.925 84.76C823.645 86.0933 824.618 87.12 825.845 87.84C827.072 88.5333 828.458 88.88 830.005 88.88C831.498 88.88 832.858 88.52 834.085 87.8C835.338 87.08 836.325 86.0533 837.045 84.72C837.765 83.3867 838.125 81.84 838.125 80.08ZM884.294 68.76C886.854 68.76 888.934 69.5733 890.534 71.2C892.16 72.8 892.974 75.1333 892.974 78.2V91H890.214V78.52C890.214 76.1467 889.64 74.3333 888.494 73.08C887.347 71.8267 885.787 71.2 883.814 71.2C881.76 71.2 880.12 71.88 878.894 73.24C877.667 74.6 877.054 76.5733 877.054 79.16V91H874.294V78.52C874.294 76.1467 873.72 74.3333 872.574 73.08C871.427 71.8267 869.854 71.2 867.854 71.2C865.8 71.2 864.16 71.88 862.934 73.24C861.707 74.6 861.094 76.5733 861.094 79.16V91H858.294V69.16H861.094V72.92C861.787 71.56 862.774 70.5333 864.054 69.84C865.334 69.12 866.76 68.76 868.334 68.76C870.227 68.76 871.88 69.2133 873.294 70.12C874.734 71.0267 875.774 72.36 876.414 74.12C877 72.3867 878 71.0667 879.414 70.16C880.854 69.2267 882.48 68.76 884.294 68.76ZM908.752 91.32C906.699 91.32 904.846 90.8667 903.192 89.96C901.566 89.0267 900.272 87.72 899.312 86.04C898.379 84.3333 897.912 82.3467 897.912 80.08C897.912 77.8133 898.392 75.84 899.352 74.16C900.312 72.4533 901.619 71.1467 903.272 70.24C904.926 69.3067 906.779 68.84 908.832 68.84C910.886 68.84 912.739 69.3067 914.392 70.24C916.072 71.1467 917.379 72.4533 918.312 74.16C919.272 75.84 919.752 77.8133 919.752 80.08C919.752 82.32 919.272 84.2933 918.312 86C917.352 87.7067 916.032 89.0267 914.352 89.96C912.672 90.8667 910.806 91.32 908.752 91.32ZM908.752 88.88C910.192 88.88 911.526 88.56 912.752 87.92C913.979 87.2533 914.966 86.2667 915.712 84.96C916.486 83.6267 916.872 82 916.872 80.08C916.872 78.16 916.499 76.5467 915.752 75.24C915.006 73.9067 914.019 72.92 912.792 72.28C911.566 71.6133 910.232 71.28 908.792 71.28C907.352 71.28 906.019 71.6133 904.792 72.28C903.566 72.92 902.579 73.9067 901.832 75.24C901.112 76.5467 900.752 78.16 900.752 80.08C900.752 82 901.112 83.6267 901.832 84.96C902.579 86.2667 903.552 87.2533 904.752 87.92C905.979 88.56 907.312 88.88 908.752 88.88ZM927.656 73.04C928.27 71.68 929.203 70.6267 930.456 69.88C931.736 69.1333 933.296 68.76 935.136 68.76V71.68H934.376C932.35 71.68 930.723 72.2267 929.496 73.32C928.27 74.4133 927.656 76.24 927.656 78.8V91H924.856V69.16H927.656V73.04ZM959.108 78.96C959.108 79.92 959.082 80.6533 959.028 81.16H940.908C940.988 82.8133 941.388 84.2267 942.108 85.4C942.828 86.5733 943.775 87.4667 944.948 88.08C946.122 88.6667 947.402 88.96 948.788 88.96C950.602 88.96 952.122 88.52 953.348 87.64C954.602 86.76 955.428 85.5733 955.828 84.08H958.788C958.255 86.2133 957.108 87.96 955.348 89.32C953.615 90.6533 951.428 91.32 948.788 91.32C946.735 91.32 944.895 90.8667 943.268 89.96C941.642 89.0267 940.362 87.72 939.428 86.04C938.522 84.3333 938.068 82.3467 938.068 80.08C938.068 77.8133 938.522 75.8267 939.428 74.12C940.335 72.4133 941.602 71.1067 943.228 70.2C944.855 69.2933 946.708 68.84 948.788 68.84C950.868 68.84 952.682 69.2933 954.228 70.2C955.802 71.1067 957.002 72.3333 957.828 73.88C958.682 75.4 959.108 77.0933 959.108 78.96ZM956.268 78.88C956.295 77.2533 955.962 75.8667 955.268 74.72C954.602 73.5733 953.682 72.7067 952.508 72.12C951.335 71.5333 950.055 71.24 948.668 71.24C946.588 71.24 944.815 71.9067 943.348 73.24C941.882 74.5733 941.068 76.4533 940.908 78.88H956.268Z" fill="white"/>
<path d="M444.24 20.08C444.24 17.8133 444.694 15.84 445.6 14.16C446.507 12.4533 447.76 11.1467 449.36 10.24C450.96 9.30667 452.787 8.84 454.84 8.84C457.534 8.84 459.747 9.50667 461.48 10.84C463.24 12.1733 464.374 13.9867 464.88 16.28H461.88C461.507 14.7067 460.694 13.48 459.44 12.6C458.214 11.6933 456.68 11.24 454.84 11.24C453.374 11.24 452.054 11.5733 450.88 12.24C449.707 12.9067 448.774 13.9067 448.08 15.24C447.414 16.5467 447.08 18.16 447.08 20.08C447.08 22 447.414 23.6267 448.08 24.96C448.774 26.2933 449.707 27.2933 450.88 27.96C452.054 28.6267 453.374 28.96 454.84 28.96C456.68 28.96 458.214 28.52 459.44 27.64C460.694 26.7333 461.507 25.48 461.88 23.88H464.88C464.374 26.12 463.24 27.92 461.48 29.28C459.72 30.64 457.507 31.32 454.84 31.32C452.787 31.32 450.96 30.8667 449.36 29.96C447.76 29.0267 446.507 27.72 445.6 26.04C444.694 24.3333 444.24 22.3467 444.24 20.08ZM479.612 31.32C477.558 31.32 475.705 30.8667 474.052 29.96C472.425 29.0267 471.132 27.72 470.172 26.04C469.238 24.3333 468.772 22.3467 468.772 20.08C468.772 17.8133 469.252 15.84 470.212 14.16C471.172 12.4533 472.478 11.1467 474.132 10.24C475.785 9.30667 477.638 8.84 479.692 8.84C481.745 8.84 483.598 9.30667 485.252 10.24C486.932 11.1467 488.238 12.4533 489.172 14.16C490.132 15.84 490.612 17.8133 490.612 20.08C490.612 22.32 490.132 24.2933 489.172 26C488.212 27.7067 486.892 29.0267 485.212 29.96C483.532 30.8667 481.665 31.32 479.612 31.32ZM479.612 28.88C481.052 28.88 482.385 28.56 483.612 27.92C484.838 27.2533 485.825 26.2667 486.572 24.96C487.345 23.6267 487.732 22 487.732 20.08C487.732 18.16 487.358 16.5467 486.612 15.24C485.865 13.9067 484.878 12.92 483.652 12.28C482.425 11.6133 481.092 11.28 479.652 11.28C478.212 11.28 476.878 11.6133 475.652 12.28C474.425 12.92 473.438 13.9067 472.692 15.24C471.972 16.5467 471.612 18.16 471.612 20.08C471.612 22 471.972 23.6267 472.692 24.96C473.438 26.2667 474.412 27.2533 475.612 27.92C476.838 28.56 478.172 28.88 479.612 28.88ZM503.236 31.32C500.729 31.32 498.676 30.7467 497.076 29.6C495.502 28.4267 494.622 26.84 494.436 24.84H497.316C497.449 26.0667 498.022 27.0667 499.036 27.84C500.076 28.5867 501.462 28.96 503.196 28.96C504.716 28.96 505.902 28.6 506.756 27.88C507.636 27.16 508.076 26.2667 508.076 25.2C508.076 24.4533 507.836 23.84 507.356 23.36C506.876 22.88 506.262 22.5067 505.516 22.24C504.796 21.9467 503.809 21.64 502.556 21.32C500.929 20.8933 499.609 20.4667 498.596 20.04C497.582 19.6133 496.716 18.9867 495.996 18.16C495.302 17.3067 494.956 16.1733 494.956 14.76C494.956 13.6933 495.276 12.7067 495.916 11.8C496.556 10.8933 497.462 10.1733 498.636 9.64C499.809 9.10667 501.142 8.84 502.636 8.84C504.982 8.84 506.876 9.44 508.316 10.64C509.756 11.8133 510.529 13.44 510.636 15.52H507.836C507.756 14.24 507.249 13.2133 506.316 12.44C505.409 11.64 504.156 11.24 502.556 11.24C501.142 11.24 499.996 11.5733 499.116 12.24C498.236 12.9067 497.796 13.7333 497.796 14.72C497.796 15.5733 498.049 16.28 498.556 16.84C499.089 17.3733 499.742 17.8 500.516 18.12C501.289 18.4133 502.329 18.7467 503.636 19.12C505.209 19.5467 506.462 19.96 507.396 20.36C508.329 20.76 509.129 21.3467 509.796 22.12C510.462 22.8933 510.809 23.92 510.836 25.2C510.836 26.3733 510.516 27.4267 509.876 28.36C509.236 29.2667 508.342 29.9867 507.196 30.52C506.049 31.0533 504.729 31.32 503.236 31.32ZM519.746 11.52V25.08C519.746 26.4133 520 27.3333 520.506 27.84C521.013 28.3467 521.906 28.6 523.186 28.6H525.746V31H522.746C520.773 31 519.306 30.5467 518.346 29.64C517.386 28.7067 516.906 27.1867 516.906 25.08V11.52H513.866V9.16H516.906V3.68H519.746V9.16H525.746V11.52H519.746ZM540.061 20.04C540.061 17.8 540.501 15.84 541.381 14.16C542.287 12.4533 543.527 11.1467 545.101 10.24C546.701 9.30667 548.501 8.84 550.501 8.84C552.581 8.84 554.367 9.32 555.861 10.28C557.381 11.24 558.474 12.4667 559.141 13.96V9.16H561.941V31H559.141V26.16C558.447 27.6533 557.341 28.8933 555.821 29.88C554.327 30.84 552.541 31.32 550.461 31.32C548.487 31.32 546.701 30.8533 545.101 29.92C543.527 28.9867 542.287 27.6667 541.381 25.96C540.501 24.2533 540.061 22.28 540.061 20.04ZM559.141 20.08C559.141 18.32 558.781 16.7733 558.061 15.44C557.341 14.1067 556.354 13.08 555.101 12.36C553.874 11.64 552.514 11.28 551.021 11.28C549.474 11.28 548.087 11.6267 546.861 12.32C545.634 13.0133 544.661 14.0267 543.941 15.36C543.247 16.6667 542.901 18.2267 542.901 20.04C542.901 21.8267 543.247 23.4 543.941 24.76C544.661 26.0933 545.634 27.12 546.861 27.84C548.087 28.5333 549.474 28.88 551.021 28.88C552.514 28.88 553.874 28.52 555.101 27.8C556.354 27.08 557.341 26.0533 558.061 24.72C558.781 23.3867 559.141 21.84 559.141 20.08ZM578.573 8.76C581.186 8.76 583.319 9.57333 584.973 11.2C586.626 12.8 587.453 15.1333 587.453 18.2V31H584.693V18.52C584.693 16.1467 584.093 14.3333 582.893 13.08C581.719 11.8267 580.106 11.2 578.053 11.2C575.946 11.2 574.266 11.8667 573.013 13.2C571.759 14.5333 571.133 16.4933 571.133 19.08V31H568.333V9.16H571.133V12.88C571.826 11.5467 572.826 10.5333 574.133 9.84C575.439 9.12 576.919 8.76 578.573 8.76ZM592.365 20.04C592.365 17.8 592.805 15.84 593.685 14.16C594.592 12.4533 595.832 11.1467 597.405 10.24C599.005 9.30667 600.805 8.84 602.805 8.84C604.885 8.84 606.672 9.32 608.165 10.28C609.685 11.24 610.779 12.4667 611.445 13.96V9.16H614.245V31H611.445V26.16C610.752 27.6533 609.645 28.8933 608.125 29.88C606.632 30.84 604.845 31.32 602.765 31.32C600.792 31.32 599.005 30.8533 597.405 29.92C595.832 28.9867 594.592 27.6667 593.685 25.96C592.805 24.2533 592.365 22.28 592.365 20.04ZM611.445 20.08C611.445 18.32 611.085 16.7733 610.365 15.44C609.645 14.1067 608.659 13.08 607.405 12.36C606.179 11.64 604.819 11.28 603.325 11.28C601.779 11.28 600.392 11.6267 599.165 12.32C597.939 13.0133 596.965 14.0267 596.245 15.36C595.552 16.6667 595.205 18.2267 595.205 20.04C595.205 21.8267 595.552 23.4 596.245 24.76C596.965 26.0933 597.939 27.12 599.165 27.84C600.392 28.5333 601.779 28.88 603.325 28.88C604.819 28.88 606.179 28.52 607.405 27.8C608.659 27.08 609.645 26.0533 610.365 24.72C611.085 23.3867 611.445 21.84 611.445 20.08ZM623.438 1.4V31H620.638V1.4H623.438ZM647.778 9.16L634.818 41.28H631.898L636.138 30.88L627.178 9.16H630.258L637.698 27.8L644.898 9.16H647.778ZM659.095 31.32C656.588 31.32 654.535 30.7467 652.935 29.6C651.362 28.4267 650.482 26.84 650.295 24.84H653.175C653.308 26.0667 653.882 27.0667 654.895 27.84C655.935 28.5867 657.322 28.96 659.055 28.96C660.575 28.96 661.762 28.6 662.615 27.88C663.495 27.16 663.935 26.2667 663.935 25.2C663.935 24.4533 663.695 23.84 663.215 23.36C662.735 22.88 662.122 22.5067 661.375 22.24C660.655 21.9467 659.668 21.64 658.415 21.32C656.788 20.8933 655.468 20.4667 654.455 20.04C653.442 19.6133 652.575 18.9867 651.855 18.16C651.162 17.3067 650.815 16.1733 650.815 14.76C650.815 13.6933 651.135 12.7067 651.775 11.8C652.415 10.8933 653.322 10.1733 654.495 9.64C655.668 9.10667 657.002 8.84 658.495 8.84C660.842 8.84 662.735 9.44 664.175 10.64C665.615 11.8133 666.388 13.44 666.495 15.52H663.695C663.615 14.24 663.108 13.2133 662.175 12.44C661.268 11.64 660.015 11.24 658.415 11.24C657.002 11.24 655.855 11.5733 654.975 12.24C654.095 12.9067 653.655 13.7333 653.655 14.72C653.655 15.5733 653.908 16.28 654.415 16.84C654.948 17.3733 655.602 17.8 656.375 18.12C657.148 18.4133 658.188 18.7467 659.495 19.12C661.068 19.5467 662.322 19.96 663.255 20.36C664.188 20.76 664.988 21.3467 665.655 22.12C666.322 22.8933 666.668 23.92 666.695 25.2C666.695 26.3733 666.375 27.4267 665.735 28.36C665.095 29.2667 664.202 29.9867 663.055 30.52C661.908 31.0533 660.588 31.32 659.095 31.32ZM673.366 5.04C672.806 5.04 672.326 4.84 671.926 4.44C671.526 4.04 671.326 3.54667 671.326 2.96C671.326 2.37333 671.526 1.89333 671.926 1.52C672.326 1.12 672.806 0.919999 673.366 0.919999C673.926 0.919999 674.406 1.12 674.806 1.52C675.206 1.89333 675.406 2.37333 675.406 2.96C675.406 3.54667 675.206 4.04 674.806 4.44C674.406 4.84 673.926 5.04 673.366 5.04ZM674.766 9.16V31H671.966V9.16H674.766ZM688.626 31.32C686.12 31.32 684.066 30.7467 682.466 29.6C680.893 28.4267 680.013 26.84 679.826 24.84H682.706C682.84 26.0667 683.413 27.0667 684.426 27.84C685.466 28.5867 686.853 28.96 688.586 28.96C690.106 28.96 691.293 28.6 692.146 27.88C693.026 27.16 693.466 26.2667 693.466 25.2C693.466 24.4533 693.226 23.84 692.746 23.36C692.266 22.88 691.653 22.5067 690.906 22.24C690.186 21.9467 689.2 21.64 687.946 21.32C686.32 20.8933 685 20.4667 683.986 20.04C682.973 19.6133 682.106 18.9867 681.386 18.16C680.693 17.3067 680.346 16.1733 680.346 14.76C680.346 13.6933 680.666 12.7067 681.306 11.8C681.946 10.8933 682.853 10.1733 684.026 9.64C685.2 9.10667 686.533 8.84 688.026 8.84C690.373 8.84 692.266 9.44 693.706 10.64C695.146 11.8133 695.92 13.44 696.026 15.52H693.226C693.146 14.24 692.64 13.2133 691.706 12.44C690.8 11.64 689.546 11.24 687.946 11.24C686.533 11.24 685.386 11.5733 684.506 12.24C683.626 12.9067 683.186 13.7333 683.186 14.72C683.186 15.5733 683.44 16.28 683.946 16.84C684.48 17.3733 685.133 17.8 685.906 18.12C686.68 18.4133 687.72 18.7467 689.026 19.12C690.6 19.5467 691.853 19.96 692.786 20.36C693.72 20.76 694.52 21.3467 695.186 22.12C695.853 22.8933 696.2 23.92 696.226 25.2C696.226 26.3733 695.906 27.4267 695.266 28.36C694.626 29.2667 693.733 29.9867 692.586 30.52C691.44 31.0533 690.12 31.32 688.626 31.32ZM704.057 26.36L699.897 36.84H697.977L700.937 26.36H704.057Z" fill="#FF8F8F"/>
<path d="M745.388 8.76C747.948 8.76 750.028 9.57333 751.628 11.2C753.254 12.8 754.068 15.1333 754.068 18.2V31H751.308V18.52C751.308 16.1467 750.734 14.3333 749.588 13.08C748.441 11.8267 746.881 11.2 744.908 11.2C742.854 11.2 741.214 11.88 739.988 13.24C738.761 14.6 738.148 16.5733 738.148 19.16V31H735.388V18.52C735.388 16.1467 734.814 14.3333 733.668 13.08C732.521 11.8267 730.948 11.2 728.948 11.2C726.894 11.2 725.254 11.88 724.028 13.24C722.801 14.6 722.188 16.5733 722.188 19.16V31H719.388V9.16H722.188V12.92C722.881 11.56 723.868 10.5333 725.148 9.84C726.428 9.12 727.854 8.76 729.428 8.76C731.321 8.76 732.974 9.21333 734.388 10.12C735.828 11.0267 736.868 12.36 737.508 14.12C738.094 12.3867 739.094 11.0667 740.508 10.16C741.948 9.22666 743.574 8.76 745.388 8.76ZM759.006 20.04C759.006 17.8 759.446 15.84 760.326 14.16C761.233 12.4533 762.473 11.1467 764.046 10.24C765.646 9.30667 767.446 8.84 769.446 8.84C771.526 8.84 773.313 9.32 774.806 10.28C776.326 11.24 777.419 12.4667 778.086 13.96V9.16H780.886V31H778.086V26.16C777.393 27.6533 776.286 28.8933 774.766 29.88C773.273 30.84 771.486 31.32 769.406 31.32C767.433 31.32 765.646 30.8533 764.046 29.92C762.473 28.9867 761.233 27.6667 760.326 25.96C759.446 24.2533 759.006 22.28 759.006 20.04ZM778.086 20.08C778.086 18.32 777.726 16.7733 777.006 15.44C776.286 14.1067 775.299 13.08 774.046 12.36C772.819 11.64 771.459 11.28 769.966 11.28C768.419 11.28 767.033 11.6267 765.806 12.32C764.579 13.0133 763.606 14.0267 762.886 15.36C762.193 16.6667 761.846 18.2267 761.846 20.04C761.846 21.8267 762.193 23.4 762.886 24.76C763.606 26.0933 764.579 27.12 765.806 27.84C767.033 28.5333 768.419 28.88 769.966 28.88C771.459 28.88 772.819 28.52 774.046 27.8C775.299 27.08 776.286 26.0533 777.006 24.72C777.726 23.3867 778.086 21.84 778.086 20.08ZM790.918 11.52V25.08C790.918 26.4133 791.171 27.3333 791.678 27.84C792.185 28.3467 793.078 28.6 794.358 28.6H796.918V31H793.918C791.945 31 790.478 30.5467 789.518 29.64C788.558 28.7067 788.078 27.1867 788.078 25.08V11.52H785.038V9.16H788.078V3.68H790.918V9.16H796.918V11.52H790.918ZM821.296 18.96C821.296 19.92 821.269 20.6533 821.216 21.16H803.096C803.176 22.8133 803.576 24.2267 804.296 25.4C805.016 26.5733 805.963 27.4667 807.136 28.08C808.309 28.6667 809.589 28.96 810.976 28.96C812.789 28.96 814.309 28.52 815.536 27.64C816.789 26.76 817.616 25.5733 818.016 24.08H820.976C820.443 26.2133 819.296 27.96 817.536 29.32C815.803 30.6533 813.616 31.32 810.976 31.32C808.923 31.32 807.083 30.8667 805.456 29.96C803.829 29.0267 802.549 27.72 801.616 26.04C800.709 24.3333 800.256 22.3467 800.256 20.08C800.256 17.8133 800.709 15.8267 801.616 14.12C802.523 12.4133 803.789 11.1067 805.416 10.2C807.043 9.29333 808.896 8.84 810.976 8.84C813.056 8.84 814.869 9.29333 816.416 10.2C817.989 11.1067 819.189 12.3333 820.016 13.88C820.869 15.4 821.296 17.0933 821.296 18.96ZM818.456 18.88C818.483 17.2533 818.149 15.8667 817.456 14.72C816.789 13.5733 815.869 12.7067 814.696 12.12C813.523 11.5333 812.243 11.24 810.856 11.24C808.776 11.24 807.003 11.9067 805.536 13.24C804.069 14.5733 803.256 16.4533 803.096 18.88H818.456ZM829.219 13.04C829.832 11.68 830.765 10.6267 832.019 9.88C833.299 9.13333 834.859 8.76 836.699 8.76V11.68H835.939C833.912 11.68 832.285 12.2267 831.059 13.32C829.832 14.4133 829.219 16.24 829.219 18.8V31H826.419V9.16H829.219V13.04ZM842.311 5.04C841.751 5.04 841.271 4.84 840.871 4.44C840.471 4.04 840.271 3.54667 840.271 2.96C840.271 2.37333 840.471 1.89333 840.871 1.52C841.271 1.12 841.751 0.919999 842.311 0.919999C842.871 0.919999 843.351 1.12 843.751 1.52C844.151 1.89333 844.351 2.37333 844.351 2.96C844.351 3.54667 844.151 4.04 843.751 4.44C843.351 4.84 842.871 5.04 842.311 5.04ZM843.711 9.16V31H840.911V9.16H843.711ZM848.772 20.04C848.772 17.8 849.212 15.84 850.092 14.16C850.998 12.4533 852.238 11.1467 853.812 10.24C855.412 9.30667 857.212 8.84 859.212 8.84C861.292 8.84 863.078 9.32 864.572 10.28C866.092 11.24 867.185 12.4667 867.852 13.96V9.16H870.652V31H867.852V26.16C867.158 27.6533 866.052 28.8933 864.532 29.88C863.038 30.84 861.252 31.32 859.172 31.32C857.198 31.32 855.412 30.8533 853.812 29.92C852.238 28.9867 850.998 27.6667 850.092 25.96C849.212 24.2533 848.772 22.28 848.772 20.04ZM867.852 20.08C867.852 18.32 867.492 16.7733 866.772 15.44C866.052 14.1067 865.065 13.08 863.812 12.36C862.585 11.64 861.225 11.28 859.732 11.28C858.185 11.28 856.798 11.6267 855.572 12.32C854.345 13.0133 853.372 14.0267 852.652 15.36C851.958 16.6667 851.612 18.2267 851.612 20.04C851.612 21.8267 851.958 23.4 852.652 24.76C853.372 26.0933 854.345 27.12 855.572 27.84C856.798 28.5333 858.185 28.88 859.732 28.88C861.225 28.88 862.585 28.52 863.812 27.8C865.065 27.08 866.052 26.0533 866.772 24.72C867.492 23.3867 867.852 21.84 867.852 20.08ZM879.844 1.4V31H877.044V1.4H879.844ZM2.96875 73.04C3.58208 71.68 4.51542 70.6267 5.76875 69.88C7.04875 69.1333 8.60875 68.76 10.4488 68.76V71.68H9.68875C7.66208 71.68 6.03542 72.2267 4.80875 73.32C3.58208 74.4133 2.96875 76.24 2.96875 78.8V91H0.16875V69.16H2.96875V73.04ZM34.4209 78.96C34.4209 79.92 34.3943 80.6533 34.3409 81.16H16.2209C16.3009 82.8133 16.7009 84.2267 17.4209 85.4C18.1409 86.5733 19.0876 87.4667 20.2609 88.08C21.4343 88.6667 22.7143 88.96 24.1009 88.96C25.9143 88.96 27.4343 88.52 28.6609 87.64C29.9143 86.76 30.7409 85.5733 31.1409 84.08H34.1009C33.5676 86.2133 32.4209 87.96 30.6609 89.32C28.9276 90.6533 26.7409 91.32 24.1009 91.32C22.0476 91.32 20.2076 90.8667 18.5809 89.96C16.9543 89.0267 15.6743 87.72 14.7409 86.04C13.8343 84.3333 13.3809 82.3467 13.3809 80.08C13.3809 77.8133 13.8343 75.8267 14.7409 74.12C15.6476 72.4133 16.9143 71.1067 18.5409 70.2C20.1676 69.2933 22.0209 68.84 24.1009 68.84C26.1809 68.84 27.9943 69.2933 29.5409 70.2C31.1143 71.1067 32.3143 72.3333 33.1409 73.88C33.9943 75.4 34.4209 77.0933 34.4209 78.96ZM31.5809 78.88C31.6076 77.2533 31.2743 75.8667 30.5809 74.72C29.9143 73.5733 28.9943 72.7067 27.8209 72.12C26.6476 71.5333 25.3676 71.24 23.9809 71.24C21.9009 71.24 20.1276 71.9067 18.6609 73.24C17.1943 74.5733 16.3809 76.4533 16.2209 78.88H31.5809ZM38.2638 80.08C38.2638 77.8133 38.7171 75.84 39.6238 74.16C40.5304 72.4533 41.7838 71.1467 43.3838 70.24C44.9838 69.3067 46.8104 68.84 48.8638 68.84C51.5571 68.84 53.7704 69.5067 55.5038 70.84C57.2638 72.1733 58.3971 73.9867 58.9038 76.28H55.9038C55.5304 74.7067 54.7171 73.48 53.4638 72.6C52.2371 71.6933 50.7038 71.24 48.8638 71.24C47.3971 71.24 46.0771 71.5733 44.9038 72.24C43.7304 72.9067 42.7971 73.9067 42.1038 75.24C41.4371 76.5467 41.1038 78.16 41.1038 80.08C41.1038 82 41.4371 83.6267 42.1038 84.96C42.7971 86.2933 43.7304 87.2933 44.9038 87.96C46.0771 88.6267 47.3971 88.96 48.8638 88.96C50.7038 88.96 52.2371 88.52 53.4638 87.64C54.7171 86.7333 55.5304 85.48 55.9038 83.88H58.9038C58.3971 86.12 57.2638 87.92 55.5038 89.28C53.7438 90.64 51.5304 91.32 48.8638 91.32C46.8104 91.32 44.9838 90.8667 43.3838 89.96C41.7838 89.0267 40.5304 87.72 39.6238 86.04C38.7171 84.3333 38.2638 82.3467 38.2638 80.08ZM73.635 91.32C71.5817 91.32 69.7283 90.8667 68.075 89.96C66.4483 89.0267 65.155 87.72 64.195 86.04C63.2617 84.3333 62.795 82.3467 62.795 80.08C62.795 77.8133 63.275 75.84 64.235 74.16C65.195 72.4533 66.5017 71.1467 68.155 70.24C69.8083 69.3067 71.6617 68.84 73.715 68.84C75.7683 68.84 77.6217 69.3067 79.275 70.24C80.955 71.1467 82.2617 72.4533 83.195 74.16C84.155 75.84 84.635 77.8133 84.635 80.08C84.635 82.32 84.155 84.2933 83.195 86C82.235 87.7067 80.915 89.0267 79.235 89.96C77.555 90.8667 75.6883 91.32 73.635 91.32ZM73.635 88.88C75.075 88.88 76.4083 88.56 77.635 87.92C78.8617 87.2533 79.8483 86.2667 80.595 84.96C81.3683 83.6267 81.755 82 81.755 80.08C81.755 78.16 81.3817 76.5467 80.635 75.24C79.8883 73.9067 78.9017 72.92 77.675 72.28C76.4483 71.6133 75.115 71.28 73.675 71.28C72.235 71.28 70.9017 71.6133 69.675 72.28C68.4483 72.92 67.4617 73.9067 66.715 75.24C65.995 76.5467 65.635 78.16 65.635 80.08C65.635 82 65.995 83.6267 66.715 84.96C67.4617 86.2667 68.435 87.2533 69.635 87.92C70.8617 88.56 72.195 88.88 73.635 88.88ZM115.739 68.76C118.299 68.76 120.379 69.5733 121.979 71.2C123.606 72.8 124.419 75.1333 124.419 78.2V91H121.659V78.52C121.659 76.1467 121.086 74.3333 119.939 73.08C118.792 71.8267 117.232 71.2 115.259 71.2C113.206 71.2 111.566 71.88 110.339 73.24C109.112 74.6 108.499 76.5733 108.499 79.16V91H105.739V78.52C105.739 76.1467 105.166 74.3333 104.019 73.08C102.872 71.8267 101.299 71.2 99.2991 71.2C97.2457 71.2 95.6057 71.88 94.3791 73.24C93.1524 74.6 92.5391 76.5733 92.5391 79.16V91H89.7391V69.16H92.5391V72.92C93.2324 71.56 94.2191 70.5333 95.4991 69.84C96.7791 69.12 98.2057 68.76 99.7791 68.76C101.672 68.76 103.326 69.2133 104.739 70.12C106.179 71.0267 107.219 72.36 107.859 74.12C108.446 72.3867 109.446 71.0667 110.859 70.16C112.299 69.2267 113.926 68.76 115.739 68.76ZM156.638 68.76C159.198 68.76 161.278 69.5733 162.878 71.2C164.504 72.8 165.318 75.1333 165.318 78.2V91H162.558V78.52C162.558 76.1467 161.984 74.3333 160.838 73.08C159.691 71.8267 158.131 71.2 156.158 71.2C154.104 71.2 152.464 71.88 151.238 73.24C150.011 74.6 149.398 76.5733 149.398 79.16V91H146.638V78.52C146.638 76.1467 146.064 74.3333 144.918 73.08C143.771 71.8267 142.198 71.2 140.198 71.2C138.144 71.2 136.504 71.88 135.278 73.24C134.051 74.6 133.438 76.5733 133.438 79.16V91H130.638V69.16H133.438V72.92C134.131 71.56 135.118 70.5333 136.398 69.84C137.678 69.12 139.104 68.76 140.678 68.76C142.571 68.76 144.224 69.2133 145.638 70.12C147.078 71.0267 148.118 72.36 148.758 74.12C149.344 72.3867 150.344 71.0667 151.758 70.16C153.198 69.2267 154.824 68.76 156.638 68.76ZM191.296 78.96C191.296 79.92 191.269 80.6533 191.216 81.16H173.096C173.176 82.8133 173.576 84.2267 174.296 85.4C175.016 86.5733 175.963 87.4667 177.136 88.08C178.309 88.6667 179.589 88.96 180.976 88.96C182.789 88.96 184.309 88.52 185.536 87.64C186.789 86.76 187.616 85.5733 188.016 84.08H190.976C190.443 86.2133 189.296 87.96 187.536 89.32C185.803 90.6533 183.616 91.32 180.976 91.32C178.923 91.32 177.083 90.8667 175.456 89.96C173.829 89.0267 172.549 87.72 171.616 86.04C170.709 84.3333 170.256 82.3467 170.256 80.08C170.256 77.8133 170.709 75.8267 171.616 74.12C172.523 72.4133 173.789 71.1067 175.416 70.2C177.043 69.2933 178.896 68.84 180.976 68.84C183.056 68.84 184.869 69.2933 186.416 70.2C187.989 71.1067 189.189 72.3333 190.016 73.88C190.869 75.4 191.296 77.0933 191.296 78.96ZM188.456 78.88C188.483 77.2533 188.149 75.8667 187.456 74.72C186.789 73.5733 185.869 72.7067 184.696 72.12C183.523 71.5333 182.243 71.24 180.856 71.24C178.776 71.24 177.003 71.9067 175.536 73.24C174.069 74.5733 173.256 76.4533 173.096 78.88H188.456ZM206.659 68.76C209.272 68.76 211.405 69.5733 213.059 71.2C214.712 72.8 215.539 75.1333 215.539 78.2V91H212.779V78.52C212.779 76.1467 212.179 74.3333 210.979 73.08C209.805 71.8267 208.192 71.2 206.139 71.2C204.032 71.2 202.352 71.8667 201.099 73.2C199.845 74.5333 199.219 76.4933 199.219 79.08V91H196.419V69.16H199.219V72.88C199.912 71.5467 200.912 70.5333 202.219 69.84C203.525 69.12 205.005 68.76 206.659 68.76ZM220.451 80.04C220.451 77.8 220.905 75.84 221.811 74.16C222.718 72.4533 223.958 71.1467 225.531 70.24C227.131 69.3067 228.931 68.84 230.931 68.84C232.851 68.84 234.585 69.3067 236.131 70.24C237.678 71.1733 238.811 72.3867 239.531 73.88V61.4H242.331V91H239.531V86.12C238.865 87.64 237.771 88.8933 236.251 89.88C234.731 90.84 232.945 91.32 230.891 91.32C228.891 91.32 227.091 90.8533 225.491 89.92C223.918 88.9867 222.678 87.6667 221.771 85.96C220.891 84.2533 220.451 82.28 220.451 80.04ZM239.531 80.08C239.531 78.32 239.171 76.7733 238.451 75.44C237.731 74.1067 236.745 73.08 235.491 72.36C234.265 71.64 232.905 71.28 231.411 71.28C229.865 71.28 228.478 71.6267 227.251 72.32C226.025 73.0133 225.051 74.0267 224.331 75.36C223.638 76.6667 223.291 78.2267 223.291 80.04C223.291 81.8267 223.638 83.4 224.331 84.76C225.051 86.0933 226.025 87.12 227.251 87.84C228.478 88.5333 229.865 88.88 231.411 88.88C232.905 88.88 234.265 88.52 235.491 87.8C236.745 87.08 237.731 86.0533 238.451 84.72C239.171 83.3867 239.531 81.84 239.531 80.08ZM247.443 80.04C247.443 77.8 247.883 75.84 248.763 74.16C249.67 72.4533 250.91 71.1467 252.483 70.24C254.083 69.3067 255.883 68.84 257.883 68.84C259.963 68.84 261.75 69.32 263.243 70.28C264.763 71.24 265.857 72.4667 266.523 73.96V69.16H269.323V91H266.523V86.16C265.83 87.6533 264.723 88.8933 263.203 89.88C261.71 90.84 259.923 91.32 257.843 91.32C255.87 91.32 254.083 90.8533 252.483 89.92C250.91 88.9867 249.67 87.6667 248.763 85.96C247.883 84.2533 247.443 82.28 247.443 80.04ZM266.523 80.08C266.523 78.32 266.163 76.7733 265.443 75.44C264.723 74.1067 263.737 73.08 262.483 72.36C261.257 71.64 259.897 71.28 258.403 71.28C256.857 71.28 255.47 71.6267 254.243 72.32C253.017 73.0133 252.043 74.0267 251.323 75.36C250.63 76.6667 250.283 78.2267 250.283 80.04C250.283 81.8267 250.63 83.4 251.323 84.76C252.043 86.0933 253.017 87.12 254.243 87.84C255.47 88.5333 256.857 88.88 258.403 88.88C259.897 88.88 261.257 88.52 262.483 87.8C263.737 87.08 264.723 86.0533 265.443 84.72C266.163 83.3867 266.523 81.84 266.523 80.08ZM279.356 71.52V85.08C279.356 86.4133 279.609 87.3333 280.116 87.84C280.622 88.3467 281.516 88.6 282.796 88.6H285.356V91H282.356C280.382 91 278.916 90.5467 277.956 89.64C276.996 88.7067 276.516 87.1867 276.516 85.08V71.52H273.476V69.16H276.516V63.68H279.356V69.16H285.356V71.52H279.356ZM291.373 65.04C290.813 65.04 290.333 64.84 289.933 64.44C289.533 64.04 289.333 63.5467 289.333 62.96C289.333 62.3733 289.533 61.8933 289.933 61.52C290.333 61.12 290.813 60.92 291.373 60.92C291.933 60.92 292.413 61.12 292.813 61.52C293.213 61.8933 293.413 62.3733 293.413 62.96C293.413 63.5467 293.213 64.04 292.813 64.44C292.413 64.84 291.933 65.04 291.373 65.04ZM292.773 69.16V91H289.973V69.16H292.773ZM308.674 91.32C306.621 91.32 304.767 90.8667 303.114 89.96C301.487 89.0267 300.194 87.72 299.234 86.04C298.301 84.3333 297.834 82.3467 297.834 80.08C297.834 77.8133 298.314 75.84 299.274 74.16C300.234 72.4533 301.541 71.1467 303.194 70.24C304.847 69.3067 306.701 68.84 308.754 68.84C310.807 68.84 312.661 69.3067 314.314 70.24C315.994 71.1467 317.301 72.4533 318.234 74.16C319.194 75.84 319.674 77.8133 319.674 80.08C319.674 82.32 319.194 84.2933 318.234 86C317.274 87.7067 315.954 89.0267 314.274 89.96C312.594 90.8667 310.727 91.32 308.674 91.32ZM308.674 88.88C310.114 88.88 311.447 88.56 312.674 87.92C313.901 87.2533 314.887 86.2667 315.634 84.96C316.407 83.6267 316.794 82 316.794 80.08C316.794 78.16 316.421 76.5467 315.674 75.24C314.927 73.9067 313.941 72.92 312.714 72.28C311.487 71.6133 310.154 71.28 308.714 71.28C307.274 71.28 305.941 71.6133 304.714 72.28C303.487 72.92 302.501 73.9067 301.754 75.24C301.034 76.5467 300.674 78.16 300.674 80.08C300.674 82 301.034 83.6267 301.754 84.96C302.501 86.2667 303.474 87.2533 304.674 87.92C305.901 88.56 307.234 88.88 308.674 88.88ZM335.018 68.76C337.631 68.76 339.765 69.5733 341.418 71.2C343.071 72.8 343.898 75.1333 343.898 78.2V91H341.138V78.52C341.138 76.1467 340.538 74.3333 339.338 73.08C338.165 71.8267 336.551 71.2 334.498 71.2C332.391 71.2 330.711 71.8667 329.458 73.2C328.205 74.5333 327.578 76.4933 327.578 79.08V91H324.778V69.16H327.578V72.88C328.271 71.5467 329.271 70.5333 330.578 69.84C331.885 69.12 333.365 68.76 335.018 68.76ZM357.611 91.32C355.104 91.32 353.051 90.7467 351.451 89.6C349.877 88.4267 348.997 86.84 348.811 84.84H351.691C351.824 86.0667 352.397 87.0667 353.411 87.84C354.451 88.5867 355.837 88.96 357.571 88.96C359.091 88.96 360.277 88.6 361.131 87.88C362.011 87.16 362.451 86.2667 362.451 85.2C362.451 84.4533 362.211 83.84 361.731 83.36C361.251 82.88 360.637 82.5067 359.891 82.24C359.171 81.9467 358.184 81.64 356.931 81.32C355.304 80.8933 353.984 80.4667 352.971 80.04C351.957 79.6133 351.091 78.9867 350.371 78.16C349.677 77.3067 349.331 76.1733 349.331 74.76C349.331 73.6933 349.651 72.7067 350.291 71.8C350.931 70.8933 351.837 70.1733 353.011 69.64C354.184 69.1067 355.517 68.84 357.011 68.84C359.357 68.84 361.251 69.44 362.691 70.64C364.131 71.8133 364.904 73.44 365.011 75.52H362.211C362.131 74.24 361.624 73.2133 360.691 72.44C359.784 71.64 358.531 71.24 356.931 71.24C355.517 71.24 354.371 71.5733 353.491 72.24C352.611 72.9067 352.171 73.7333 352.171 74.72C352.171 75.5733 352.424 76.28 352.931 76.84C353.464 77.3733 354.117 77.8 354.891 78.12C355.664 78.4133 356.704 78.7467 358.011 79.12C359.584 79.5467 360.837 79.96 361.771 80.36C362.704 80.76 363.504 81.3467 364.171 82.12C364.837 82.8933 365.184 83.92 365.211 85.2C365.211 86.3733 364.891 87.4267 364.251 88.36C363.611 89.2667 362.717 89.9867 361.571 90.52C360.424 91.0533 359.104 91.32 357.611 91.32ZM373.041 86.36L368.881 96.84H366.961L369.921 86.36H373.041Z" fill="#CCFF3A"/>
<path d="M387.092 80.08C387.092 77.8133 387.545 75.84 388.452 74.16C389.359 72.4533 390.612 71.1467 392.212 70.24C393.812 69.3067 395.639 68.84 397.692 68.84C400.385 68.84 402.599 69.5067 404.332 70.84C406.092 72.1733 407.225 73.9867 407.732 76.28H404.732C404.359 74.7067 403.545 73.48 402.292 72.6C401.065 71.6933 399.532 71.24 397.692 71.24C396.225 71.24 394.905 71.5733 393.732 72.24C392.559 72.9067 391.625 73.9067 390.932 75.24C390.265 76.5467 389.932 78.16 389.932 80.08C389.932 82 390.265 83.6267 390.932 84.96C391.625 86.2933 392.559 87.2933 393.732 87.96C394.905 88.6267 396.225 88.96 397.692 88.96C399.532 88.96 401.065 88.52 402.292 87.64C403.545 86.7333 404.359 85.48 404.732 83.88H407.732C407.225 86.12 406.092 87.92 404.332 89.28C402.572 90.64 400.359 91.32 397.692 91.32C395.639 91.32 393.812 90.8667 392.212 89.96C390.612 89.0267 389.359 87.72 388.452 86.04C387.545 84.3333 387.092 82.3467 387.092 80.08ZM422.463 91.32C420.41 91.32 418.556 90.8667 416.903 89.96C415.276 89.0267 413.983 87.72 413.023 86.04C412.09 84.3333 411.623 82.3467 411.623 80.08C411.623 77.8133 412.103 75.84 413.063 74.16C414.023 72.4533 415.33 71.1467 416.983 70.24C418.636 69.3067 420.49 68.84 422.543 68.84C424.596 68.84 426.45 69.3067 428.103 70.24C429.783 71.1467 431.09 72.4533 432.023 74.16C432.983 75.84 433.463 77.8133 433.463 80.08C433.463 82.32 432.983 84.2933 432.023 86C431.063 87.7067 429.743 89.0267 428.063 89.96C426.383 90.8667 424.516 91.32 422.463 91.32ZM422.463 88.88C423.903 88.88 425.236 88.56 426.463 87.92C427.69 87.2533 428.676 86.2667 429.423 84.96C430.196 83.6267 430.583 82 430.583 80.08C430.583 78.16 430.21 76.5467 429.463 75.24C428.716 73.9067 427.73 72.92 426.503 72.28C425.276 71.6133 423.943 71.28 422.503 71.28C421.063 71.28 419.73 71.6133 418.503 72.28C417.276 72.92 416.29 73.9067 415.543 75.24C414.823 76.5467 414.463 78.16 414.463 80.08C414.463 82 414.823 83.6267 415.543 84.96C416.29 86.2667 417.263 87.2533 418.463 87.92C419.69 88.56 421.023 88.88 422.463 88.88ZM448.807 68.76C451.421 68.76 453.554 69.5733 455.207 71.2C456.861 72.8 457.687 75.1333 457.687 78.2V91H454.927V78.52C454.927 76.1467 454.327 74.3333 453.127 73.08C451.954 71.8267 450.341 71.2 448.287 71.2C446.181 71.2 444.501 71.8667 443.247 73.2C441.994 74.5333 441.367 76.4933 441.367 79.08V91H438.567V69.16H441.367V72.88C442.061 71.5467 443.061 70.5333 444.367 69.84C445.674 69.12 447.154 68.76 448.807 68.76ZM471.4 91.32C468.893 91.32 466.84 90.7467 465.24 89.6C463.666 88.4267 462.786 86.84 462.6 84.84H465.48C465.613 86.0667 466.186 87.0667 467.2 87.84C468.24 88.5867 469.626 88.96 471.36 88.96C472.88 88.96 474.066 88.6 474.92 87.88C475.8 87.16 476.24 86.2667 476.24 85.2C476.24 84.4533 476 83.84 475.52 83.36C475.04 82.88 474.426 82.5067 473.68 82.24C472.96 81.9467 471.973 81.64 470.72 81.32C469.093 80.8933 467.773 80.4667 466.76 80.04C465.746 79.6133 464.88 78.9867 464.16 78.16C463.466 77.3067 463.12 76.1733 463.12 74.76C463.12 73.6933 463.44 72.7067 464.08 71.8C464.72 70.8933 465.626 70.1733 466.8 69.64C467.973 69.1067 469.306 68.84 470.8 68.84C473.146 68.84 475.04 69.44 476.48 70.64C477.92 71.8133 478.693 73.44 478.8 75.52H476C475.92 74.24 475.413 73.2133 474.48 72.44C473.573 71.64 472.32 71.24 470.72 71.24C469.306 71.24 468.16 71.5733 467.28 72.24C466.4 72.9067 465.96 73.7333 465.96 74.72C465.96 75.5733 466.213 76.28 466.72 76.84C467.253 77.3733 467.906 77.8 468.68 78.12C469.453 78.4133 470.493 78.7467 471.8 79.12C473.373 79.5467 474.626 79.96 475.56 80.36C476.493 80.76 477.293 81.3467 477.96 82.12C478.626 82.8933 478.973 83.92 479 85.2C479 86.3733 478.68 87.4267 478.04 88.36C477.4 89.2667 476.506 89.9867 475.36 90.52C474.213 91.0533 472.893 91.32 471.4 91.32ZM487.91 71.52V85.08C487.91 86.4133 488.164 87.3333 488.67 87.84C489.177 88.3467 490.07 88.6 491.35 88.6H493.91V91H490.91C488.937 91 487.47 90.5467 486.51 89.64C485.55 88.7067 485.07 87.1867 485.07 85.08V71.52H482.03V69.16H485.07V63.68H487.91V69.16H493.91V71.52H487.91ZM501.328 73.04C501.941 71.68 502.875 70.6267 504.128 69.88C505.408 69.1333 506.968 68.76 508.808 68.76V71.68H508.048C506.021 71.68 504.395 72.2267 503.168 73.32C501.941 74.4133 501.328 76.24 501.328 78.8V91H498.528V69.16H501.328V73.04ZM531.94 69.16V91H529.14V87.16C528.5 88.52 527.514 89.56 526.18 90.28C524.847 91 523.354 91.36 521.7 91.36C519.087 91.36 516.954 90.56 515.3 88.96C513.647 87.3333 512.82 84.9867 512.82 81.92V69.16H515.58V81.6C515.58 83.9733 516.167 85.7867 517.34 87.04C518.54 88.2933 520.167 88.92 522.22 88.92C524.327 88.92 526.007 88.2533 527.26 86.92C528.514 85.5867 529.14 83.6267 529.14 81.04V69.16H531.94ZM537.053 80.08C537.053 77.8133 537.506 75.84 538.413 74.16C539.319 72.4533 540.573 71.1467 542.173 70.24C543.773 69.3067 545.599 68.84 547.653 68.84C550.346 68.84 552.559 69.5067 554.293 70.84C556.053 72.1733 557.186 73.9867 557.693 76.28H554.693C554.319 74.7067 553.506 73.48 552.253 72.6C551.026 71.6933 549.493 71.24 547.653 71.24C546.186 71.24 544.866 71.5733 543.693 72.24C542.519 72.9067 541.586 73.9067 540.893 75.24C540.226 76.5467 539.893 78.16 539.893 80.08C539.893 82 540.226 83.6267 540.893 84.96C541.586 86.2933 542.519 87.2933 543.693 87.96C544.866 88.6267 546.186 88.96 547.653 88.96C549.493 88.96 551.026 88.52 552.253 87.64C553.506 86.7333 554.319 85.48 554.693 83.88H557.693C557.186 86.12 556.053 87.92 554.293 89.28C552.533 90.64 550.319 91.32 547.653 91.32C545.599 91.32 543.773 90.8667 542.173 89.96C540.573 89.0267 539.319 87.72 538.413 86.04C537.506 84.3333 537.053 82.3467 537.053 80.08ZM566.504 71.52V85.08C566.504 86.4133 566.757 87.3333 567.264 87.84C567.771 88.3467 568.664 88.6 569.944 88.6H572.504V91H569.504C567.531 91 566.064 90.5467 565.104 89.64C564.144 88.7067 563.664 87.1867 563.664 85.08V71.52H560.624V69.16H563.664V63.68H566.504V69.16H572.504V71.52H566.504ZM578.522 65.04C577.962 65.04 577.482 64.84 577.082 64.44C576.682 64.04 576.482 63.5467 576.482 62.96C576.482 62.3733 576.682 61.8933 577.082 61.52C577.482 61.12 577.962 60.92 578.522 60.92C579.082 60.92 579.562 61.12 579.962 61.52C580.362 61.8933 580.562 62.3733 580.562 62.96C580.562 63.5467 580.362 64.04 579.962 64.44C579.562 64.84 579.082 65.04 578.522 65.04ZM579.922 69.16V91H577.122V69.16H579.922ZM595.823 91.32C593.769 91.32 591.916 90.8667 590.263 89.96C588.636 89.0267 587.343 87.72 586.383 86.04C585.449 84.3333 584.983 82.3467 584.983 80.08C584.983 77.8133 585.463 75.84 586.423 74.16C587.383 72.4533 588.689 71.1467 590.343 70.24C591.996 69.3067 593.849 68.84 595.903 68.84C597.956 68.84 599.809 69.3067 601.463 70.24C603.143 71.1467 604.449 72.4533 605.383 74.16C606.343 75.84 606.823 77.8133 606.823 80.08C606.823 82.32 606.343 84.2933 605.383 86C604.423 87.7067 603.103 89.0267 601.423 89.96C599.743 90.8667 597.876 91.32 595.823 91.32ZM595.823 88.88C597.263 88.88 598.596 88.56 599.823 87.92C601.049 87.2533 602.036 86.2667 602.783 84.96C603.556 83.6267 603.943 82 603.943 80.08C603.943 78.16 603.569 76.5467 602.823 75.24C602.076 73.9067 601.089 72.92 599.863 72.28C598.636 71.6133 597.303 71.28 595.863 71.28C594.423 71.28 593.089 71.6133 591.863 72.28C590.636 72.92 589.649 73.9067 588.903 75.24C588.183 76.5467 587.823 78.16 587.823 80.08C587.823 82 588.183 83.6267 588.903 84.96C589.649 86.2667 590.623 87.2533 591.823 87.92C593.049 88.56 594.383 88.88 595.823 88.88ZM622.167 68.76C624.78 68.76 626.913 69.5733 628.567 71.2C630.22 72.8 631.047 75.1333 631.047 78.2V91H628.287V78.52C628.287 76.1467 627.687 74.3333 626.487 73.08C625.313 71.8267 623.7 71.2 621.647 71.2C619.54 71.2 617.86 71.8667 616.607 73.2C615.353 74.5333 614.727 76.4933 614.727 79.08V91H611.927V69.16H614.727V72.88C615.42 71.5467 616.42 70.5333 617.727 69.84C619.033 69.12 620.513 68.76 622.167 68.76ZM650.976 73.96C651.669 72.4933 652.762 71.28 654.256 70.32C655.776 69.3333 657.576 68.84 659.656 68.84C661.629 68.84 663.402 69.3067 664.976 70.24C666.576 71.1467 667.816 72.4533 668.696 74.16C669.602 75.84 670.056 77.8 670.056 80.04C670.056 82.28 669.602 84.2533 668.696 85.96C667.816 87.6667 666.576 88.9867 664.976 89.92C663.402 90.8533 661.629 91.32 659.656 91.32C657.602 91.32 655.816 90.84 654.296 89.88C652.776 88.8933 651.669 87.6667 650.976 86.2V101.32H648.216V69.16H650.976V73.96ZM667.216 80.04C667.216 78.2267 666.856 76.6667 666.136 75.36C665.442 74.0267 664.482 73.0133 663.256 72.32C662.029 71.6267 660.642 71.28 659.096 71.28C657.602 71.28 656.229 71.64 654.976 72.36C653.749 73.08 652.776 74.1067 652.056 75.44C651.336 76.7733 650.976 78.32 650.976 80.08C650.976 81.84 651.336 83.3867 652.056 84.72C652.776 86.0533 653.749 87.08 654.976 87.8C656.229 88.52 657.602 88.88 659.096 88.88C660.642 88.88 662.029 88.5333 663.256 87.84C664.482 87.12 665.442 86.0933 666.136 84.76C666.856 83.4 667.216 81.8267 667.216 80.04ZM678.008 61.4V91H675.208V61.4H678.008ZM683.068 80.04C683.068 77.8 683.508 75.84 684.388 74.16C685.295 72.4533 686.535 71.1467 688.108 70.24C689.708 69.3067 691.508 68.84 693.508 68.84C695.588 68.84 697.375 69.32 698.868 70.28C700.388 71.24 701.482 72.4667 702.148 73.96V69.16H704.948V91H702.148V86.16C701.455 87.6533 700.348 88.8933 698.828 89.88C697.335 90.84 695.548 91.32 693.468 91.32C691.495 91.32 689.708 90.8533 688.108 89.92C686.535 88.9867 685.295 87.6667 684.388 85.96C683.508 84.2533 683.068 82.28 683.068 80.04ZM702.148 80.08C702.148 78.32 701.788 76.7733 701.068 75.44C700.348 74.1067 699.362 73.08 698.108 72.36C696.882 71.64 695.522 71.28 694.028 71.28C692.482 71.28 691.095 71.6267 689.868 72.32C688.642 73.0133 687.668 74.0267 686.948 75.36C686.255 76.6667 685.908 78.2267 685.908 80.04C685.908 81.8267 686.255 83.4 686.948 84.76C687.668 86.0933 688.642 87.12 689.868 87.84C691.095 88.5333 692.482 88.88 694.028 88.88C695.522 88.88 696.882 88.52 698.108 87.8C699.362 87.08 700.348 86.0533 701.068 84.72C701.788 83.3867 702.148 81.84 702.148 80.08ZM721.581 68.76C724.194 68.76 726.327 69.5733 727.981 71.2C729.634 72.8 730.461 75.1333 730.461 78.2V91H727.701V78.52C727.701 76.1467 727.101 74.3333 725.901 73.08C724.727 71.8267 723.114 71.2 721.061 71.2C718.954 71.2 717.274 71.8667 716.021 73.2C714.767 74.5333 714.141 76.4933 714.141 79.08V91H711.341V69.16H714.141V72.88C714.834 71.5467 715.834 70.5333 717.141 69.84C718.447 69.12 719.927 68.76 721.581 68.76ZM744.173 91.32C741.666 91.32 739.613 90.7467 738.013 89.6C736.44 88.4267 735.56 86.84 735.373 84.84H738.253C738.386 86.0667 738.96 87.0667 739.973 87.84C741.013 88.5867 742.4 88.96 744.133 88.96C745.653 88.96 746.84 88.6 747.693 87.88C748.573 87.16 749.013 86.2667 749.013 85.2C749.013 84.4533 748.773 83.84 748.293 83.36C747.813 82.88 747.2 82.5067 746.453 82.24C745.733 81.9467 744.746 81.64 743.493 81.32C741.866 80.8933 740.546 80.4667 739.533 80.04C738.52 79.6133 737.653 78.9867 736.933 78.16C736.24 77.3067 735.893 76.1733 735.893 74.76C735.893 73.6933 736.213 72.7067 736.853 71.8C737.493 70.8933 738.4 70.1733 739.573 69.64C740.746 69.1067 742.08 68.84 743.573 68.84C745.92 68.84 747.813 69.44 749.253 70.64C750.693 71.8133 751.466 73.44 751.573 75.52H748.773C748.693 74.24 748.186 73.2133 747.253 72.44C746.346 71.64 745.093 71.24 743.493 71.24C742.08 71.24 740.933 71.5733 740.053 72.24C739.173 72.9067 738.733 73.7333 738.733 74.72C738.733 75.5733 738.986 76.28 739.493 76.84C740.026 77.3733 740.68 77.8 741.453 78.12C742.226 78.4133 743.266 78.7467 744.573 79.12C746.146 79.5467 747.4 79.96 748.333 80.36C749.266 80.76 750.066 81.3467 750.733 82.12C751.4 82.8933 751.746 83.92 751.773 85.2C751.773 86.3733 751.453 87.4267 750.813 88.36C750.173 89.2667 749.28 89.9867 748.133 90.52C746.986 91.0533 745.666 91.32 744.173 91.32Z" fill="#B8C7FF"/>
</svg>
