<svg width="374" height="208" viewBox="0 0 374 208" fill="none" xmlns="http://www.w3.org/2000/svg">
<rect x="1.5" y="1.5" width="371" height="205" rx="18.5" stroke="url(#paint0_linear_21_150)" stroke-width="3"/>
<path d="M79.6452 95.625C81.4952 95.625 83.1119 95.9833 84.4952 96.7C85.8952 97.4 86.9702 98.4167 87.7202 99.75C88.4869 101.067 88.8702 102.608 88.8702 104.375C88.8702 106.142 88.4869 107.675 87.7202 108.975C86.9702 110.275 85.8952 111.275 84.4952 111.975C83.1119 112.658 81.4952 113 79.6452 113H73.9702V95.625H79.6452ZM79.6452 110.675C81.6785 110.675 83.2369 110.125 84.3202 109.025C85.4035 107.925 85.9452 106.375 85.9452 104.375C85.9452 102.358 85.4035 100.783 84.3202 99.65C83.2369 98.5167 81.6785 97.95 79.6452 97.95H76.8202V110.675H79.6452ZM97.6698 113.225C96.3698 113.225 95.1948 112.933 94.1448 112.35C93.0948 111.75 92.2698 110.917 91.6698 109.85C91.0698 108.767 90.7698 107.517 90.7698 106.1C90.7698 104.7 91.0782 103.458 91.6948 102.375C92.3115 101.292 93.1532 100.458 94.2198 99.875C95.2865 99.2917 96.4782 99 97.7948 99C99.1115 99 100.303 99.2917 101.37 99.875C102.436 100.458 103.278 101.292 103.895 102.375C104.511 103.458 104.82 104.7 104.82 106.1C104.82 107.5 104.503 108.742 103.87 109.825C103.236 110.908 102.37 111.75 101.27 112.35C100.186 112.933 98.9865 113.225 97.6698 113.225ZM97.6698 110.75C98.4032 110.75 99.0865 110.575 99.7198 110.225C100.37 109.875 100.895 109.35 101.295 108.65C101.695 107.95 101.895 107.1 101.895 106.1C101.895 105.1 101.703 104.258 101.32 103.575C100.936 102.875 100.428 102.35 99.7948 102C99.1615 101.65 98.4782 101.475 97.7448 101.475C97.0115 101.475 96.3282 101.65 95.6948 102C95.0782 102.35 94.5865 102.875 94.2198 103.575C93.8532 104.258 93.6698 105.1 93.6698 106.1C93.6698 107.583 94.0448 108.733 94.7948 109.55C95.5615 110.35 96.5198 110.75 97.6698 110.75ZM126.137 99.225L121.862 113H118.862L116.087 102.825L113.312 113H110.312L106.012 99.225H108.912L111.787 110.3L114.712 99.225H117.687L120.487 110.25L123.337 99.225H126.137ZM135.217 99C136.3 99 137.267 99.225 138.117 99.675C138.984 100.125 139.659 100.792 140.142 101.675C140.625 102.558 140.867 103.625 140.867 104.875V113H138.042V105.3C138.042 104.067 137.734 103.125 137.117 102.475C136.5 101.808 135.659 101.475 134.592 101.475C133.525 101.475 132.675 101.808 132.042 102.475C131.425 103.125 131.117 104.067 131.117 105.3V113H128.267V99.225H131.117V100.8C131.584 100.233 132.175 99.7917 132.892 99.475C133.625 99.1583 134.4 99 135.217 99ZM147.352 94.5V113H144.502V94.5H147.352ZM157.069 113.225C155.769 113.225 154.594 112.933 153.544 112.35C152.494 111.75 151.669 110.917 151.069 109.85C150.469 108.767 150.169 107.517 150.169 106.1C150.169 104.7 150.478 103.458 151.094 102.375C151.711 101.292 152.553 100.458 153.619 99.875C154.686 99.2917 155.878 99 157.194 99C158.511 99 159.703 99.2917 160.769 99.875C161.836 100.458 162.678 101.292 163.294 102.375C163.911 103.458 164.219 104.7 164.219 106.1C164.219 107.5 163.903 108.742 163.269 109.825C162.636 110.908 161.769 111.75 160.669 112.35C159.586 112.933 158.386 113.225 157.069 113.225ZM157.069 110.75C157.803 110.75 158.486 110.575 159.119 110.225C159.769 109.875 160.294 109.35 160.694 108.65C161.094 107.95 161.294 107.1 161.294 106.1C161.294 105.1 161.103 104.258 160.719 103.575C160.336 102.875 159.828 102.35 159.194 102C158.561 101.65 157.878 101.475 157.144 101.475C156.411 101.475 155.728 101.65 155.094 102C154.478 102.35 153.986 102.875 153.619 103.575C153.253 104.258 153.069 105.1 153.069 106.1C153.069 107.583 153.444 108.733 154.194 109.55C154.961 110.35 155.919 110.75 157.069 110.75ZM166.087 106.05C166.087 104.667 166.37 103.442 166.937 102.375C167.52 101.308 168.303 100.483 169.287 99.9C170.287 99.3 171.387 99 172.587 99C173.67 99 174.612 99.2167 175.412 99.65C176.228 100.067 176.878 100.592 177.362 101.225V99.225H180.237V113H177.362V110.95C176.878 111.6 176.22 112.142 175.387 112.575C174.553 113.008 173.603 113.225 172.537 113.225C171.353 113.225 170.27 112.925 169.287 112.325C168.303 111.708 167.52 110.858 166.937 109.775C166.37 108.675 166.087 107.433 166.087 106.05ZM177.362 106.1C177.362 105.15 177.162 104.325 176.762 103.625C176.378 102.925 175.87 102.392 175.237 102.025C174.603 101.658 173.92 101.475 173.187 101.475C172.453 101.475 171.77 101.658 171.137 102.025C170.503 102.375 169.987 102.9 169.587 103.6C169.203 104.283 169.012 105.1 169.012 106.05C169.012 107 169.203 107.833 169.587 108.55C169.987 109.267 170.503 109.817 171.137 110.2C171.787 110.567 172.47 110.75 173.187 110.75C173.92 110.75 174.603 110.567 175.237 110.2C175.87 109.833 176.378 109.3 176.762 108.6C177.162 107.883 177.362 107.05 177.362 106.1ZM183.03 106.05C183.03 104.667 183.313 103.442 183.88 102.375C184.463 101.308 185.247 100.483 186.23 99.9C187.23 99.3 188.338 99 189.555 99C190.455 99 191.338 99.2 192.205 99.6C193.088 99.9833 193.788 100.5 194.305 101.15V94.5H197.18V113H194.305V110.925C193.838 111.592 193.188 112.142 192.355 112.575C191.538 113.008 190.597 113.225 189.53 113.225C188.33 113.225 187.23 112.925 186.23 112.325C185.247 111.708 184.463 110.858 183.88 109.775C183.313 108.675 183.03 107.433 183.03 106.05ZM194.305 106.1C194.305 105.15 194.105 104.325 193.705 103.625C193.322 102.925 192.813 102.392 192.18 102.025C191.547 101.658 190.863 101.475 190.13 101.475C189.397 101.475 188.713 101.658 188.08 102.025C187.447 102.375 186.93 102.9 186.53 103.6C186.147 104.283 185.955 105.1 185.955 106.05C185.955 107 186.147 107.833 186.53 108.55C186.93 109.267 187.447 109.817 188.08 110.2C188.73 110.567 189.413 110.75 190.13 110.75C190.863 110.75 191.547 110.567 192.18 110.2C192.813 109.833 193.322 109.3 193.705 108.6C194.105 107.883 194.305 107.05 194.305 106.1ZM216.442 113L212.442 106.05H210.267V113H207.417V95.625H213.417C214.751 95.625 215.876 95.8583 216.792 96.325C217.726 96.7917 218.417 97.4167 218.867 98.2C219.334 98.9833 219.567 99.8583 219.567 100.825C219.567 101.958 219.234 102.992 218.567 103.925C217.917 104.842 216.909 105.467 215.542 105.8L219.842 113H216.442ZM210.267 103.775H213.417C214.484 103.775 215.284 103.508 215.817 102.975C216.367 102.442 216.642 101.725 216.642 100.825C216.642 99.925 216.376 99.225 215.842 98.725C215.309 98.2083 214.501 97.95 213.417 97.95H210.267V103.775ZM235.838 105.775C235.838 106.292 235.805 106.758 235.738 107.175H225.213C225.297 108.275 225.705 109.158 226.438 109.825C227.172 110.492 228.072 110.825 229.138 110.825C230.672 110.825 231.755 110.183 232.388 108.9H235.463C235.047 110.167 234.288 111.208 233.188 112.025C232.105 112.825 230.755 113.225 229.138 113.225C227.822 113.225 226.638 112.933 225.588 112.35C224.555 111.75 223.738 110.917 223.138 109.85C222.555 108.767 222.263 107.517 222.263 106.1C222.263 104.683 222.547 103.442 223.113 102.375C223.697 101.292 224.505 100.458 225.538 99.875C226.588 99.2917 227.788 99 229.138 99C230.438 99 231.597 99.2833 232.613 99.85C233.63 100.417 234.422 101.217 234.988 102.25C235.555 103.267 235.838 104.442 235.838 105.775ZM232.863 104.875C232.847 103.825 232.472 102.983 231.738 102.35C231.005 101.717 230.097 101.4 229.013 101.4C228.03 101.4 227.188 101.717 226.488 102.35C225.788 102.967 225.372 103.808 225.238 104.875H232.863ZM241.493 101.25C241.976 100.617 242.635 100.083 243.468 99.65C244.301 99.2167 245.243 99 246.293 99C247.493 99 248.585 99.3 249.568 99.9C250.568 100.483 251.351 101.308 251.918 102.375C252.485 103.442 252.768 104.667 252.768 106.05C252.768 107.433 252.485 108.675 251.918 109.775C251.351 110.858 250.568 111.708 249.568 112.325C248.585 112.925 247.493 113.225 246.293 113.225C245.243 113.225 244.31 113.017 243.493 112.6C242.676 112.167 242.01 111.633 241.493 111V119.55H238.643V99.225H241.493V101.25ZM249.868 106.05C249.868 105.1 249.668 104.283 249.268 103.6C248.885 102.9 248.368 102.375 247.718 102.025C247.085 101.658 246.401 101.475 245.668 101.475C244.951 101.475 244.268 101.658 243.618 102.025C242.985 102.392 242.468 102.925 242.068 103.625C241.685 104.325 241.493 105.15 241.493 106.1C241.493 107.05 241.685 107.883 242.068 108.6C242.468 109.3 242.985 109.833 243.618 110.2C244.268 110.567 244.951 110.75 245.668 110.75C246.401 110.75 247.085 110.567 247.718 110.2C248.368 109.817 248.885 109.267 249.268 108.55C249.668 107.833 249.868 107 249.868 106.05ZM261.561 113.225C260.261 113.225 259.086 112.933 258.036 112.35C256.986 111.75 256.161 110.917 255.561 109.85C254.961 108.767 254.661 107.517 254.661 106.1C254.661 104.7 254.97 103.458 255.586 102.375C256.203 101.292 257.045 100.458 258.111 99.875C259.178 99.2917 260.37 99 261.686 99C263.003 99 264.195 99.2917 265.261 99.875C266.328 100.458 267.17 101.292 267.786 102.375C268.403 103.458 268.711 104.7 268.711 106.1C268.711 107.5 268.395 108.742 267.761 109.825C267.128 110.908 266.261 111.75 265.161 112.35C264.078 112.933 262.878 113.225 261.561 113.225ZM261.561 110.75C262.295 110.75 262.978 110.575 263.611 110.225C264.261 109.875 264.786 109.35 265.186 108.65C265.586 107.95 265.786 107.1 265.786 106.1C265.786 105.1 265.595 104.258 265.211 103.575C264.828 102.875 264.32 102.35 263.686 102C263.053 101.65 262.37 101.475 261.636 101.475C260.903 101.475 260.22 101.65 259.586 102C258.97 102.35 258.478 102.875 258.111 103.575C257.745 104.258 257.561 105.1 257.561 106.1C257.561 107.583 257.936 108.733 258.686 109.55C259.453 110.35 260.411 110.75 261.561 110.75ZM274.379 101.225C274.795 100.525 275.345 99.9833 276.029 99.6C276.729 99.2 277.554 99 278.504 99V101.95H277.779C276.662 101.95 275.812 102.233 275.229 102.8C274.662 103.367 274.379 104.35 274.379 105.75V113H271.529V99.225H274.379V101.225ZM284.449 101.55V109.175C284.449 109.692 284.565 110.067 284.799 110.3C285.049 110.517 285.465 110.625 286.049 110.625H287.799V113H285.549C284.265 113 283.282 112.7 282.599 112.1C281.915 111.5 281.574 110.525 281.574 109.175V101.55H279.949V99.225H281.574V95.8H284.449V99.225H287.799V101.55H284.449ZM295.425 113.225C294.342 113.225 293.367 113.033 292.5 112.65C291.65 112.25 290.975 111.717 290.475 111.05C289.975 110.367 289.709 109.608 289.675 108.775H292.625C292.675 109.358 292.95 109.85 293.45 110.25C293.967 110.633 294.609 110.825 295.375 110.825C296.175 110.825 296.792 110.675 297.225 110.375C297.675 110.058 297.9 109.658 297.9 109.175C297.9 108.658 297.65 108.275 297.15 108.025C296.667 107.775 295.892 107.5 294.825 107.2C293.792 106.917 292.95 106.642 292.3 106.375C291.65 106.108 291.084 105.7 290.6 105.15C290.134 104.6 289.9 103.875 289.9 102.975C289.9 102.242 290.117 101.575 290.55 100.975C290.984 100.358 291.6 99.875 292.4 99.525C293.217 99.175 294.15 99 295.2 99C296.767 99 298.025 99.4 298.975 100.2C299.942 100.983 300.459 102.058 300.525 103.425H297.675C297.625 102.808 297.375 102.317 296.925 101.95C296.475 101.583 295.867 101.4 295.1 101.4C294.35 101.4 293.775 101.542 293.375 101.825C292.975 102.108 292.775 102.483 292.775 102.95C292.775 103.317 292.909 103.625 293.175 103.875C293.442 104.125 293.767 104.325 294.15 104.475C294.534 104.608 295.1 104.783 295.85 105C296.85 105.267 297.667 105.542 298.3 105.825C298.95 106.092 299.509 106.492 299.975 107.025C300.442 107.558 300.684 108.267 300.7 109.15C300.7 109.933 300.484 110.633 300.05 111.25C299.617 111.867 299 112.35 298.2 112.7C297.417 113.05 296.492 113.225 295.425 113.225Z" fill="url(#paint1_linear_21_150)"/>
<defs>
<linearGradient id="paint0_linear_21_150" x1="1.1631e-06" y1="11.5" x2="356.5" y2="208" gradientUnits="userSpaceOnUse">
<stop stop-color="#28FFD8"/>
<stop offset="1" stop-color="#ED1AFF"/>
</linearGradient>
<linearGradient id="paint1_linear_21_150" x1="42" y1="104" x2="332" y2="104" gradientUnits="userSpaceOnUse">
<stop stop-color="#28FFD8"/>
<stop offset="1" stop-color="#D11AFF"/>
</linearGradient>
</defs>
</svg>
