<svg width="374" height="208" viewBox="0 0 374 208" fill="none" xmlns="http://www.w3.org/2000/svg">
<rect x="1.5" y="1.5" width="371" height="205" rx="18.5" stroke="url(#paint0_linear_21_149)" stroke-width="3"/>
<path d="M66.2083 72.625C65.7583 71.7583 65.1333 71.1083 64.3333 70.675C63.5333 70.225 62.6083 70 61.5583 70C60.4083 70 59.3833 70.2583 58.4833 70.775C57.5833 71.2917 56.875 72.025 56.3583 72.975C55.8583 73.925 55.6083 75.025 55.6083 76.275C55.6083 77.525 55.8583 78.6333 56.3583 79.6C56.875 80.55 57.5833 81.2833 58.4833 81.8C59.3833 82.3167 60.4083 82.575 61.5583 82.575C63.1083 82.575 64.3666 82.1417 65.3333 81.275C66.3 80.4083 66.8916 79.2333 67.1083 77.75H60.5833V75.475H70.1583V77.7C69.975 79.05 69.4916 80.2917 68.7083 81.425C67.9416 82.5583 66.9333 83.4667 65.6833 84.15C64.45 84.8167 63.075 85.15 61.5583 85.15C59.925 85.15 58.4333 84.775 57.0833 84.025C55.7333 83.2583 54.6583 82.2 53.8583 80.85C53.075 79.5 52.6833 77.975 52.6833 76.275C52.6833 74.575 53.075 73.05 53.8583 71.7C54.6583 70.35 55.7333 69.3 57.0833 68.55C58.45 67.7833 59.9416 67.4 61.5583 67.4C63.4083 67.4 65.05 67.8583 66.4833 68.775C67.9333 69.675 68.9833 70.9583 69.6333 72.625H66.2083ZM85.5942 77.775C85.5942 78.2917 85.5609 78.7583 85.4942 79.175H74.9692C75.0526 80.275 75.4609 81.1583 76.1942 81.825C76.9276 82.4917 77.8276 82.825 78.8942 82.825C80.4276 82.825 81.5109 82.1833 82.1442 80.9H85.2192C84.8026 82.1667 84.0442 83.2083 82.9442 84.025C81.8609 84.825 80.5109 85.225 78.8942 85.225C77.5776 85.225 76.3942 84.9333 75.3442 84.35C74.3109 83.75 73.4942 82.9167 72.8942 81.85C72.3109 80.7667 72.0192 79.5167 72.0192 78.1C72.0192 76.6833 72.3026 75.4417 72.8692 74.375C73.4526 73.2917 74.2609 72.4583 75.2942 71.875C76.3442 71.2917 77.5442 71 78.8942 71C80.1942 71 81.3526 71.2833 82.3692 71.85C83.3859 72.4167 84.1776 73.2167 84.7442 74.25C85.3109 75.2667 85.5942 76.4417 85.5942 77.775ZM82.6192 76.875C82.6026 75.825 82.2276 74.9833 81.4942 74.35C80.7609 73.7167 79.8526 73.4 78.7692 73.4C77.7859 73.4 76.9442 73.7167 76.2442 74.35C75.5442 74.9667 75.1276 75.8083 74.9942 76.875H82.6192ZM91.7239 73.55V81.175C91.7239 81.6917 91.8406 82.0667 92.0739 82.3C92.3239 82.5167 92.7406 82.625 93.3239 82.625H95.0739V85H92.8239C91.5406 85 90.5573 84.7 89.8739 84.1C89.1906 83.5 88.8489 82.525 88.8489 81.175V73.55H87.2239V71.225H88.8489V67.8H91.7239V71.225H95.0739V73.55H91.7239ZM116.67 71.225V85H113.82V83.375C113.37 83.9417 112.778 84.3917 112.045 84.725C111.328 85.0417 110.561 85.2 109.745 85.2C108.661 85.2 107.686 84.975 106.82 84.525C105.97 84.075 105.295 83.4083 104.795 82.525C104.311 81.6417 104.07 80.575 104.07 79.325V71.225H106.895V78.9C106.895 80.1333 107.203 81.0833 107.82 81.75C108.436 82.4 109.278 82.725 110.345 82.725C111.411 82.725 112.253 82.4 112.87 81.75C113.503 81.0833 113.82 80.1333 113.82 78.9V71.225H116.67ZM125.43 85.225C124.347 85.225 123.372 85.0333 122.505 84.65C121.655 84.25 120.98 83.7167 120.48 83.05C119.98 82.3667 119.714 81.6083 119.68 80.775H122.63C122.68 81.3583 122.955 81.85 123.455 82.25C123.972 82.6333 124.614 82.825 125.38 82.825C126.18 82.825 126.797 82.675 127.23 82.375C127.68 82.0583 127.905 81.6583 127.905 81.175C127.905 80.6583 127.655 80.275 127.155 80.025C126.672 79.775 125.897 79.5 124.83 79.2C123.797 78.9167 122.955 78.6417 122.305 78.375C121.655 78.1083 121.089 77.7 120.605 77.15C120.139 76.6 119.905 75.875 119.905 74.975C119.905 74.2417 120.122 73.575 120.555 72.975C120.989 72.3583 121.605 71.875 122.405 71.525C123.222 71.175 124.155 71 125.205 71C126.772 71 128.03 71.4 128.98 72.2C129.947 72.9833 130.464 74.0583 130.53 75.425H127.68C127.63 74.8083 127.38 74.3167 126.93 73.95C126.48 73.5833 125.872 73.4 125.105 73.4C124.355 73.4 123.78 73.5417 123.38 73.825C122.98 74.1083 122.78 74.4833 122.78 74.95C122.78 75.3167 122.914 75.625 123.18 75.875C123.447 76.125 123.772 76.325 124.155 76.475C124.539 76.6083 125.105 76.7833 125.855 77C126.855 77.2667 127.672 77.5417 128.305 77.825C128.955 78.0917 129.514 78.4917 129.98 79.025C130.447 79.5583 130.689 80.2667 130.705 81.15C130.705 81.9333 130.489 82.6333 130.055 83.25C129.622 83.8667 129.005 84.35 128.205 84.7C127.422 85.05 126.497 85.225 125.43 85.225ZM146.41 77.775C146.41 78.2917 146.376 78.7583 146.31 79.175H135.785C135.868 80.275 136.276 81.1583 137.01 81.825C137.743 82.4917 138.643 82.825 139.71 82.825C141.243 82.825 142.326 82.1833 142.96 80.9H146.035C145.618 82.1667 144.86 83.2083 143.76 84.025C142.676 84.825 141.326 85.225 139.71 85.225C138.393 85.225 137.21 84.9333 136.16 84.35C135.126 83.75 134.31 82.9167 133.71 81.85C133.126 80.7667 132.835 79.5167 132.835 78.1C132.835 76.6833 133.118 75.4417 133.685 74.375C134.268 73.2917 135.076 72.4583 136.11 71.875C137.16 71.2917 138.36 71 139.71 71C141.01 71 142.168 71.2833 143.185 71.85C144.201 72.4167 144.993 73.2167 145.56 74.25C146.126 75.2667 146.41 76.4417 146.41 77.775ZM143.435 76.875C143.418 75.825 143.043 74.9833 142.31 74.35C141.576 73.7167 140.668 73.4 139.585 73.4C138.601 73.4 137.76 73.7167 137.06 74.35C136.36 74.9667 135.943 75.8083 135.81 76.875H143.435ZM154.989 73.55H152.439V85H149.564V73.55H147.939V71.225H149.564V70.25C149.564 68.6667 149.981 67.5167 150.814 66.8C151.664 66.0667 152.989 65.7 154.789 65.7V68.075C153.923 68.075 153.314 68.2417 152.964 68.575C152.614 68.8917 152.439 69.45 152.439 70.25V71.225H154.989V73.55ZM169.99 71.225V85H167.14V83.375C166.69 83.9417 166.098 84.3917 165.365 84.725C164.648 85.0417 163.882 85.2 163.065 85.2C161.982 85.2 161.007 84.975 160.14 84.525C159.29 84.075 158.615 83.4083 158.115 82.525C157.632 81.6417 157.39 80.575 157.39 79.325V71.225H160.215V78.9C160.215 80.1333 160.523 81.0833 161.14 81.75C161.757 82.4 162.598 82.725 163.665 82.725C164.732 82.725 165.573 82.4 166.19 81.75C166.823 81.0833 167.14 80.1333 167.14 78.9V71.225H169.99ZM176.6 66.5V85H173.75V66.5H176.6ZM188.286 69.4C187.77 69.4 187.336 69.225 186.986 68.875C186.636 68.525 186.461 68.0917 186.461 67.575C186.461 67.0583 186.636 66.625 186.986 66.275C187.336 65.925 187.77 65.75 188.286 65.75C188.786 65.75 189.211 65.925 189.561 66.275C189.911 66.625 190.086 67.0583 190.086 67.575C190.086 68.0917 189.911 68.525 189.561 68.875C189.211 69.225 188.786 69.4 188.286 69.4ZM189.686 71.225V85H186.836V71.225H189.686ZM200.378 71C201.462 71 202.428 71.225 203.278 71.675C204.145 72.125 204.82 72.7917 205.303 73.675C205.787 74.5583 206.028 75.625 206.028 76.875V85H203.203V77.3C203.203 76.0667 202.895 75.125 202.278 74.475C201.662 73.8083 200.82 73.475 199.753 73.475C198.687 73.475 197.837 73.8083 197.203 74.475C196.587 75.125 196.278 76.0667 196.278 77.3V85H193.428V71.225H196.278V72.8C196.745 72.2333 197.337 71.7917 198.053 71.475C198.787 71.1583 199.562 71 200.378 71ZM214.664 85.225C213.58 85.225 212.605 85.0333 211.739 84.65C210.889 84.25 210.214 83.7167 209.714 83.05C209.214 82.3667 208.947 81.6083 208.914 80.775H211.864C211.914 81.3583 212.189 81.85 212.689 82.25C213.205 82.6333 213.847 82.825 214.614 82.825C215.414 82.825 216.03 82.675 216.464 82.375C216.914 82.0583 217.139 81.6583 217.139 81.175C217.139 80.6583 216.889 80.275 216.389 80.025C215.905 79.775 215.13 79.5 214.064 79.2C213.03 78.9167 212.189 78.6417 211.539 78.375C210.889 78.1083 210.322 77.7 209.839 77.15C209.372 76.6 209.139 75.875 209.139 74.975C209.139 74.2417 209.355 73.575 209.789 72.975C210.222 72.3583 210.839 71.875 211.639 71.525C212.455 71.175 213.389 71 214.439 71C216.005 71 217.264 71.4 218.214 72.2C219.18 72.9833 219.697 74.0583 219.764 75.425H216.914C216.864 74.8083 216.614 74.3167 216.164 73.95C215.714 73.5833 215.105 73.4 214.339 73.4C213.589 73.4 213.014 73.5417 212.614 73.825C212.214 74.1083 212.014 74.4833 212.014 74.95C212.014 75.3167 212.147 75.625 212.414 75.875C212.68 76.125 213.005 76.325 213.389 76.475C213.772 76.6083 214.339 76.7833 215.089 77C216.089 77.2667 216.905 77.5417 217.539 77.825C218.189 78.0917 218.747 78.4917 219.214 79.025C219.68 79.5583 219.922 80.2667 219.939 81.15C219.939 81.9333 219.722 82.6333 219.289 83.25C218.855 83.8667 218.239 84.35 217.439 84.7C216.655 85.05 215.73 85.225 214.664 85.225ZM224.468 69.4C223.951 69.4 223.518 69.225 223.168 68.875C222.818 68.525 222.643 68.0917 222.643 67.575C222.643 67.0583 222.818 66.625 223.168 66.275C223.518 65.925 223.951 65.75 224.468 65.75C224.968 65.75 225.393 65.925 225.743 66.275C226.093 66.625 226.268 67.0583 226.268 67.575C226.268 68.0917 226.093 68.525 225.743 68.875C225.393 69.225 224.968 69.4 224.468 69.4ZM225.868 71.225V85H223.018V71.225H225.868ZM235.16 71C236.227 71 237.168 71.2167 237.985 71.65C238.818 72.0667 239.468 72.5917 239.935 73.225V71.225H242.81V85.225C242.81 86.4917 242.543 87.6167 242.01 88.6C241.477 89.6 240.702 90.3833 239.685 90.95C238.685 91.5167 237.485 91.8 236.085 91.8C234.218 91.8 232.668 91.3583 231.435 90.475C230.202 89.6083 229.502 88.425 229.335 86.925H232.16C232.377 87.6417 232.835 88.2167 233.535 88.65C234.252 89.1 235.102 89.325 236.085 89.325C237.235 89.325 238.16 88.975 238.86 88.275C239.577 87.575 239.935 86.5583 239.935 85.225V82.925C239.452 83.575 238.793 84.125 237.96 84.575C237.143 85.0083 236.21 85.225 235.16 85.225C233.96 85.225 232.86 84.925 231.86 84.325C230.877 83.7083 230.093 82.8583 229.51 81.775C228.943 80.675 228.66 79.4333 228.66 78.05C228.66 76.6667 228.943 75.4417 229.51 74.375C230.093 73.3083 230.877 72.4833 231.86 71.9C232.86 71.3 233.96 71 235.16 71ZM239.935 78.1C239.935 77.15 239.735 76.325 239.335 75.625C238.952 74.925 238.443 74.3917 237.81 74.025C237.177 73.6583 236.493 73.475 235.76 73.475C235.027 73.475 234.343 73.6583 233.71 74.025C233.077 74.375 232.56 74.9 232.16 75.6C231.777 76.2833 231.585 77.1 231.585 78.05C231.585 79 231.777 79.8333 232.16 80.55C232.56 81.2667 233.077 81.8167 233.71 82.2C234.36 82.5667 235.043 82.75 235.76 82.75C236.493 82.75 237.177 82.5667 237.81 82.2C238.443 81.8333 238.952 81.3 239.335 80.6C239.735 79.8833 239.935 79.05 239.935 78.1ZM253.678 71C254.728 71 255.662 71.225 256.478 71.675C257.312 72.125 257.962 72.7917 258.428 73.675C258.912 74.5583 259.153 75.625 259.153 76.875V85H256.328V77.3C256.328 76.0667 256.02 75.125 255.403 74.475C254.787 73.8083 253.945 73.475 252.878 73.475C251.812 73.475 250.962 73.8083 250.328 74.475C249.712 75.125 249.403 76.0667 249.403 77.3V85H246.553V66.5H249.403V72.825C249.887 72.2417 250.495 71.7917 251.228 71.475C251.978 71.1583 252.795 71 253.678 71ZM266.114 73.55V81.175C266.114 81.6917 266.23 82.0667 266.464 82.3C266.714 82.5167 267.13 82.625 267.714 82.625H269.464V85H267.214C265.93 85 264.947 84.7 264.264 84.1C263.58 83.5 263.239 82.525 263.239 81.175V73.55H261.614V71.225H263.239V67.8H266.114V71.225H269.464V73.55H266.114ZM277.09 85.225C276.007 85.225 275.032 85.0333 274.165 84.65C273.315 84.25 272.64 83.7167 272.14 83.05C271.64 82.3667 271.374 81.6083 271.34 80.775H274.29C274.34 81.3583 274.615 81.85 275.115 82.25C275.632 82.6333 276.274 82.825 277.04 82.825C277.84 82.825 278.457 82.675 278.89 82.375C279.34 82.0583 279.565 81.6583 279.565 81.175C279.565 80.6583 279.315 80.275 278.815 80.025C278.332 79.775 277.557 79.5 276.49 79.2C275.457 78.9167 274.615 78.6417 273.965 78.375C273.315 78.1083 272.749 77.7 272.265 77.15C271.799 76.6 271.565 75.875 271.565 74.975C271.565 74.2417 271.782 73.575 272.215 72.975C272.649 72.3583 273.265 71.875 274.065 71.525C274.882 71.175 275.815 71 276.865 71C278.432 71 279.69 71.4 280.64 72.2C281.607 72.9833 282.124 74.0583 282.19 75.425H279.34C279.29 74.8083 279.04 74.3167 278.59 73.95C278.14 73.5833 277.532 73.4 276.765 73.4C276.015 73.4 275.44 73.5417 275.04 73.825C274.64 74.1083 274.44 74.4833 274.44 74.95C274.44 75.3167 274.574 75.625 274.84 75.875C275.107 76.125 275.432 76.325 275.815 76.475C276.199 76.6083 276.765 76.7833 277.515 77C278.515 77.2667 279.332 77.5417 279.965 77.825C280.615 78.0917 281.174 78.4917 281.64 79.025C282.107 79.5583 282.349 80.2667 282.365 81.15C282.365 81.9333 282.149 82.6333 281.715 83.25C281.282 83.8667 280.665 84.35 279.865 84.7C279.082 85.05 278.157 85.225 277.09 85.225ZM297.914 85.225C296.614 85.225 295.439 84.9333 294.389 84.35C293.339 83.75 292.514 82.9167 291.914 81.85C291.314 80.7667 291.014 79.5167 291.014 78.1C291.014 76.7 291.322 75.4583 291.939 74.375C292.556 73.2917 293.397 72.4583 294.464 71.875C295.531 71.2917 296.722 71 298.039 71C299.356 71 300.547 71.2917 301.614 71.875C302.681 72.4583 303.522 73.2917 304.139 74.375C304.756 75.4583 305.064 76.7 305.064 78.1C305.064 79.5 304.747 80.7417 304.114 81.825C303.481 82.9083 302.614 83.75 301.514 84.35C300.431 84.9333 299.231 85.225 297.914 85.225ZM297.914 82.75C298.647 82.75 299.331 82.575 299.964 82.225C300.614 81.875 301.139 81.35 301.539 80.65C301.939 79.95 302.139 79.1 302.139 78.1C302.139 77.1 301.947 76.2583 301.564 75.575C301.181 74.875 300.672 74.35 300.039 74C299.406 73.65 298.722 73.475 297.989 73.475C297.256 73.475 296.572 73.65 295.939 74C295.322 74.35 294.831 74.875 294.464 75.575C294.097 76.2583 293.914 77.1 293.914 78.1C293.914 79.5833 294.289 80.7333 295.039 81.55C295.806 82.35 296.764 82.75 297.914 82.75ZM314.831 71C315.915 71 316.881 71.225 317.731 71.675C318.598 72.125 319.273 72.7917 319.756 73.675C320.24 74.5583 320.481 75.625 320.481 76.875V85H317.656V77.3C317.656 76.0667 317.348 75.125 316.731 74.475C316.115 73.8083 315.273 73.475 314.206 73.475C313.14 73.475 312.29 73.8083 311.656 74.475C311.04 75.125 310.731 76.0667 310.731 77.3V85H307.881V71.225H310.731V72.8C311.198 72.2333 311.79 71.7917 312.506 71.475C313.24 71.1583 314.015 71 314.831 71ZM116.013 119.45H108.738L107.488 123H104.513L110.738 105.6H114.038L120.263 123H117.263L116.013 119.45ZM115.213 117.125L112.388 109.05L109.538 117.125H115.213ZM125.819 107.925V113.025H131.819V115.35H125.819V120.675H132.569V123H122.969V105.6H132.569V107.925H125.819ZM135.13 114.275C135.13 112.575 135.521 111.05 136.305 109.7C137.105 108.35 138.18 107.3 139.53 106.55C140.896 105.783 142.388 105.4 144.005 105.4C145.855 105.4 147.496 105.858 148.93 106.775C150.38 107.675 151.43 108.958 152.08 110.625H148.655C148.205 109.708 147.58 109.025 146.78 108.575C145.98 108.125 145.055 107.9 144.005 107.9C142.855 107.9 141.83 108.158 140.93 108.675C140.03 109.192 139.321 109.933 138.805 110.9C138.305 111.867 138.055 112.992 138.055 114.275C138.055 115.558 138.305 116.683 138.805 117.65C139.321 118.617 140.03 119.367 140.93 119.9C141.83 120.417 142.855 120.675 144.005 120.675C145.055 120.675 145.98 120.45 146.78 120C147.58 119.55 148.205 118.867 148.655 117.95H152.08C151.43 119.617 150.38 120.9 148.93 121.8C147.496 122.7 145.855 123.15 144.005 123.15C142.371 123.15 140.88 122.775 139.53 122.025C138.18 121.258 137.105 120.2 136.305 118.85C135.521 117.5 135.13 115.975 135.13 114.275ZM171.21 114.075C172.143 114.242 172.935 114.733 173.585 115.55C174.235 116.367 174.56 117.292 174.56 118.325C174.56 119.208 174.326 120.008 173.86 120.725C173.41 121.425 172.751 121.983 171.885 122.4C171.018 122.8 170.01 123 168.86 123H161.91V105.625H168.535C169.718 105.625 170.735 105.825 171.585 106.225C172.435 106.625 173.076 107.167 173.51 107.85C173.943 108.517 174.16 109.267 174.16 110.1C174.16 111.1 173.893 111.933 173.36 112.6C172.826 113.267 172.11 113.758 171.21 114.075ZM164.76 112.925H168.285C169.218 112.925 169.943 112.717 170.46 112.3C170.993 111.867 171.26 111.25 171.26 110.45C171.26 109.667 170.993 109.058 170.46 108.625C169.943 108.175 169.218 107.95 168.285 107.95H164.76V112.925ZM168.61 120.675C169.576 120.675 170.335 120.442 170.885 119.975C171.435 119.508 171.71 118.858 171.71 118.025C171.71 117.175 171.418 116.5 170.835 116C170.251 115.5 169.476 115.25 168.51 115.25H164.76V120.675H168.61ZM190.132 109.225V123H187.282V121.375C186.832 121.942 186.24 122.392 185.507 122.725C184.79 123.042 184.023 123.2 183.207 123.2C182.123 123.2 181.148 122.975 180.282 122.525C179.432 122.075 178.757 121.408 178.257 120.525C177.773 119.642 177.532 118.575 177.532 117.325V109.225H180.357V116.9C180.357 118.133 180.665 119.083 181.282 119.75C181.898 120.4 182.74 120.725 183.807 120.725C184.873 120.725 185.715 120.4 186.332 119.75C186.965 119.083 187.282 118.133 187.282 116.9V109.225H190.132ZM198.892 123.225C197.809 123.225 196.834 123.033 195.967 122.65C195.117 122.25 194.442 121.717 193.942 121.05C193.442 120.367 193.175 119.608 193.142 118.775H196.092C196.142 119.358 196.417 119.85 196.917 120.25C197.434 120.633 198.075 120.825 198.842 120.825C199.642 120.825 200.259 120.675 200.692 120.375C201.142 120.058 201.367 119.658 201.367 119.175C201.367 118.658 201.117 118.275 200.617 118.025C200.134 117.775 199.359 117.5 198.292 117.2C197.259 116.917 196.417 116.642 195.767 116.375C195.117 116.108 194.55 115.7 194.067 115.15C193.6 114.6 193.367 113.875 193.367 112.975C193.367 112.242 193.584 111.575 194.017 110.975C194.45 110.358 195.067 109.875 195.867 109.525C196.684 109.175 197.617 109 198.667 109C200.234 109 201.492 109.4 202.442 110.2C203.409 110.983 203.925 112.058 203.992 113.425H201.142C201.092 112.808 200.842 112.317 200.392 111.95C199.942 111.583 199.334 111.4 198.567 111.4C197.817 111.4 197.242 111.542 196.842 111.825C196.442 112.108 196.242 112.483 196.242 112.95C196.242 113.317 196.375 113.625 196.642 113.875C196.909 114.125 197.234 114.325 197.617 114.475C198 114.608 198.567 114.783 199.317 115C200.317 115.267 201.134 115.542 201.767 115.825C202.417 116.092 202.975 116.492 203.442 117.025C203.909 117.558 204.15 118.267 204.167 119.15C204.167 119.933 203.95 120.633 203.517 121.25C203.084 121.867 202.467 122.35 201.667 122.7C200.884 123.05 199.959 123.225 198.892 123.225ZM208.697 107.4C208.18 107.4 207.747 107.225 207.397 106.875C207.047 106.525 206.872 106.092 206.872 105.575C206.872 105.058 207.047 104.625 207.397 104.275C207.747 103.925 208.18 103.75 208.697 103.75C209.197 103.75 209.622 103.925 209.972 104.275C210.322 104.625 210.497 105.058 210.497 105.575C210.497 106.092 210.322 106.525 209.972 106.875C209.622 107.225 209.197 107.4 208.697 107.4ZM210.097 109.225V123H207.247V109.225H210.097ZM220.788 109C221.872 109 222.838 109.225 223.688 109.675C224.555 110.125 225.23 110.792 225.713 111.675C226.197 112.558 226.438 113.625 226.438 114.875V123H223.613V115.3C223.613 114.067 223.305 113.125 222.688 112.475C222.072 111.808 221.23 111.475 220.163 111.475C219.097 111.475 218.247 111.808 217.613 112.475C216.997 113.125 216.688 114.067 216.688 115.3V123H213.838V109.225H216.688V110.8C217.155 110.233 217.747 109.792 218.463 109.475C219.197 109.158 219.972 109 220.788 109ZM242.699 115.775C242.699 116.292 242.665 116.758 242.599 117.175H232.074C232.157 118.275 232.565 119.158 233.299 119.825C234.032 120.492 234.932 120.825 235.999 120.825C237.532 120.825 238.615 120.183 239.249 118.9H242.324C241.907 120.167 241.149 121.208 240.049 122.025C238.965 122.825 237.615 123.225 235.999 123.225C234.682 123.225 233.499 122.933 232.449 122.35C231.415 121.75 230.599 120.917 229.999 119.85C229.415 118.767 229.124 117.517 229.124 116.1C229.124 114.683 229.407 113.442 229.974 112.375C230.557 111.292 231.365 110.458 232.399 109.875C233.449 109.292 234.649 109 235.999 109C237.299 109 238.457 109.283 239.474 109.85C240.49 110.417 241.282 111.217 241.849 112.25C242.415 113.267 242.699 114.442 242.699 115.775ZM239.724 114.875C239.707 113.825 239.332 112.983 238.599 112.35C237.865 111.717 236.957 111.4 235.874 111.4C234.89 111.4 234.049 111.717 233.349 112.35C232.649 112.967 232.232 113.808 232.099 114.875H239.724ZM250.503 123.225C249.42 123.225 248.445 123.033 247.578 122.65C246.728 122.25 246.053 121.717 245.553 121.05C245.053 120.367 244.787 119.608 244.753 118.775H247.703C247.753 119.358 248.028 119.85 248.528 120.25C249.045 120.633 249.687 120.825 250.453 120.825C251.253 120.825 251.87 120.675 252.303 120.375C252.753 120.058 252.978 119.658 252.978 119.175C252.978 118.658 252.728 118.275 252.228 118.025C251.745 117.775 250.97 117.5 249.903 117.2C248.87 116.917 248.028 116.642 247.378 116.375C246.728 116.108 246.162 115.7 245.678 115.15C245.212 114.6 244.978 113.875 244.978 112.975C244.978 112.242 245.195 111.575 245.628 110.975C246.062 110.358 246.678 109.875 247.478 109.525C248.295 109.175 249.228 109 250.278 109C251.845 109 253.103 109.4 254.053 110.2C255.02 110.983 255.537 112.058 255.603 113.425H252.753C252.703 112.808 252.453 112.317 252.003 111.95C251.553 111.583 250.945 111.4 250.178 111.4C249.428 111.4 248.853 111.542 248.453 111.825C248.053 112.108 247.853 112.483 247.853 112.95C247.853 113.317 247.987 113.625 248.253 113.875C248.52 114.125 248.845 114.325 249.228 114.475C249.612 114.608 250.178 114.783 250.928 115C251.928 115.267 252.745 115.542 253.378 115.825C254.028 116.092 254.587 116.492 255.053 117.025C255.52 117.558 255.762 118.267 255.778 119.15C255.778 119.933 255.562 120.633 255.128 121.25C254.695 121.867 254.078 122.35 253.278 122.7C252.495 123.05 251.57 123.225 250.503 123.225ZM263.858 123.225C262.775 123.225 261.8 123.033 260.933 122.65C260.083 122.25 259.408 121.717 258.908 121.05C258.408 120.367 258.141 119.608 258.108 118.775H261.058C261.108 119.358 261.383 119.85 261.883 120.25C262.4 120.633 263.041 120.825 263.808 120.825C264.608 120.825 265.225 120.675 265.658 120.375C266.108 120.058 266.333 119.658 266.333 119.175C266.333 118.658 266.083 118.275 265.583 118.025C265.1 117.775 264.325 117.5 263.258 117.2C262.225 116.917 261.383 116.642 260.733 116.375C260.083 116.108 259.516 115.7 259.033 115.15C258.566 114.6 258.333 113.875 258.333 112.975C258.333 112.242 258.55 111.575 258.983 110.975C259.416 110.358 260.033 109.875 260.833 109.525C261.65 109.175 262.583 109 263.633 109C265.2 109 266.458 109.4 267.408 110.2C268.375 110.983 268.891 112.058 268.958 113.425H266.108C266.058 112.808 265.808 112.317 265.358 111.95C264.908 111.583 264.3 111.4 263.533 111.4C262.783 111.4 262.208 111.542 261.808 111.825C261.408 112.108 261.208 112.483 261.208 112.95C261.208 113.317 261.341 113.625 261.608 113.875C261.875 114.125 262.2 114.325 262.583 114.475C262.966 114.608 263.533 114.783 264.283 115C265.283 115.267 266.1 115.542 266.733 115.825C267.383 116.092 267.941 116.492 268.408 117.025C268.875 117.558 269.116 118.267 269.133 119.15C269.133 119.933 268.916 120.633 268.483 121.25C268.05 121.867 267.433 122.35 266.633 122.7C265.85 123.05 264.925 123.225 263.858 123.225ZM118.544 143.625V161H115.694V143.625H118.544ZM129.236 147C130.319 147 131.286 147.225 132.136 147.675C133.002 148.125 133.677 148.792 134.161 149.675C134.644 150.558 134.886 151.625 134.886 152.875V161H132.061V153.3C132.061 152.067 131.752 151.125 131.136 150.475C130.519 149.808 129.677 149.475 128.611 149.475C127.544 149.475 126.694 149.808 126.061 150.475C125.444 151.125 125.136 152.067 125.136 153.3V161H122.286V147.225H125.136V148.8C125.602 148.233 126.194 147.792 126.911 147.475C127.644 147.158 128.419 147 129.236 147ZM141.846 149.55V157.175C141.846 157.692 141.963 158.067 142.196 158.3C142.446 158.517 142.863 158.625 143.446 158.625H145.196V161H142.946C141.663 161 140.679 160.7 139.996 160.1C139.313 159.5 138.971 158.525 138.971 157.175V149.55H137.346V147.225H138.971V143.8H141.846V147.225H145.196V149.55H141.846ZM160.448 153.775C160.448 154.292 160.414 154.758 160.348 155.175H149.823C149.906 156.275 150.314 157.158 151.048 157.825C151.781 158.492 152.681 158.825 153.748 158.825C155.281 158.825 156.364 158.183 156.998 156.9H160.073C159.656 158.167 158.898 159.208 157.798 160.025C156.714 160.825 155.364 161.225 153.748 161.225C152.431 161.225 151.248 160.933 150.198 160.35C149.164 159.75 148.348 158.917 147.748 157.85C147.164 156.767 146.873 155.517 146.873 154.1C146.873 152.683 147.156 151.442 147.723 150.375C148.306 149.292 149.114 148.458 150.148 147.875C151.198 147.292 152.398 147 153.748 147C155.048 147 156.206 147.283 157.223 147.85C158.239 148.417 159.031 149.217 159.598 150.25C160.164 151.267 160.448 152.442 160.448 153.775ZM157.473 152.875C157.456 151.825 157.081 150.983 156.348 150.35C155.614 149.717 154.706 149.4 153.623 149.4C152.639 149.4 151.798 149.717 151.098 150.35C150.398 150.967 149.981 151.808 149.848 152.875H157.473ZM166.102 142.5V161H163.252V142.5H166.102ZM172.694 142.5V161H169.844V142.5H172.694ZM177.886 145.4C177.369 145.4 176.936 145.225 176.586 144.875C176.236 144.525 176.061 144.092 176.061 143.575C176.061 143.058 176.236 142.625 176.586 142.275C176.936 141.925 177.369 141.75 177.886 141.75C178.386 141.75 178.811 141.925 179.161 142.275C179.511 142.625 179.686 143.058 179.686 143.575C179.686 144.092 179.511 144.525 179.161 144.875C178.811 145.225 178.386 145.4 177.886 145.4ZM179.286 147.225V161H176.436V147.225H179.286ZM188.578 147C189.644 147 190.586 147.217 191.403 147.65C192.236 148.067 192.886 148.592 193.353 149.225V147.225H196.228V161.225C196.228 162.492 195.961 163.617 195.428 164.6C194.894 165.6 194.119 166.383 193.103 166.95C192.103 167.517 190.903 167.8 189.503 167.8C187.636 167.8 186.086 167.358 184.853 166.475C183.619 165.608 182.919 164.425 182.753 162.925H185.578C185.794 163.642 186.253 164.217 186.953 164.65C187.669 165.1 188.519 165.325 189.503 165.325C190.653 165.325 191.578 164.975 192.278 164.275C192.994 163.575 193.353 162.558 193.353 161.225V158.925C192.869 159.575 192.211 160.125 191.378 160.575C190.561 161.008 189.628 161.225 188.578 161.225C187.378 161.225 186.278 160.925 185.278 160.325C184.294 159.708 183.511 158.858 182.928 157.775C182.361 156.675 182.078 155.433 182.078 154.05C182.078 152.667 182.361 151.442 182.928 150.375C183.511 149.308 184.294 148.483 185.278 147.9C186.278 147.3 187.378 147 188.578 147ZM193.353 154.1C193.353 153.15 193.153 152.325 192.753 151.625C192.369 150.925 191.861 150.392 191.228 150.025C190.594 149.658 189.911 149.475 189.178 149.475C188.444 149.475 187.761 149.658 187.128 150.025C186.494 150.375 185.978 150.9 185.578 151.6C185.194 152.283 185.003 153.1 185.003 154.05C185.003 155 185.194 155.833 185.578 156.55C185.978 157.267 186.494 157.817 187.128 158.2C187.778 158.567 188.461 158.75 189.178 158.75C189.911 158.75 190.594 158.567 191.228 158.2C191.861 157.833 192.369 157.3 192.753 156.6C193.153 155.883 193.353 155.05 193.353 154.1ZM212.596 153.775C212.596 154.292 212.563 154.758 212.496 155.175H201.971C202.055 156.275 202.463 157.158 203.196 157.825C203.93 158.492 204.83 158.825 205.896 158.825C207.43 158.825 208.513 158.183 209.146 156.9H212.221C211.805 158.167 211.046 159.208 209.946 160.025C208.863 160.825 207.513 161.225 205.896 161.225C204.58 161.225 203.396 160.933 202.346 160.35C201.313 159.75 200.496 158.917 199.896 157.85C199.313 156.767 199.021 155.517 199.021 154.1C199.021 152.683 199.305 151.442 199.871 150.375C200.455 149.292 201.263 148.458 202.296 147.875C203.346 147.292 204.546 147 205.896 147C207.196 147 208.355 147.283 209.371 147.85C210.388 148.417 211.18 149.217 211.746 150.25C212.313 151.267 212.596 152.442 212.596 153.775ZM209.621 152.875C209.605 151.825 209.23 150.983 208.496 150.35C207.763 149.717 206.855 149.4 205.771 149.4C204.788 149.4 203.946 149.717 203.246 150.35C202.546 150.967 202.13 151.808 201.996 152.875H209.621ZM222.351 147C223.434 147 224.401 147.225 225.251 147.675C226.118 148.125 226.793 148.792 227.276 149.675C227.759 150.558 228.001 151.625 228.001 152.875V161H225.176V153.3C225.176 152.067 224.868 151.125 224.251 150.475C223.634 149.808 222.793 149.475 221.726 149.475C220.659 149.475 219.809 149.808 219.176 150.475C218.559 151.125 218.251 152.067 218.251 153.3V161H215.401V147.225H218.251V148.8C218.718 148.233 219.309 147.792 220.026 147.475C220.759 147.158 221.534 147 222.351 147ZM230.686 154.1C230.686 152.683 230.97 151.442 231.536 150.375C232.12 149.292 232.92 148.458 233.936 147.875C234.953 147.292 236.12 147 237.436 147C239.103 147 240.478 147.4 241.561 148.2C242.661 148.983 243.403 150.108 243.786 151.575H240.711C240.461 150.892 240.061 150.358 239.511 149.975C238.961 149.592 238.27 149.4 237.436 149.4C236.27 149.4 235.336 149.817 234.636 150.65C233.953 151.467 233.611 152.617 233.611 154.1C233.611 155.583 233.953 156.742 234.636 157.575C235.336 158.408 236.27 158.825 237.436 158.825C239.086 158.825 240.178 158.1 240.711 156.65H243.786C243.386 158.05 242.636 159.167 241.536 160C240.436 160.817 239.07 161.225 237.436 161.225C236.12 161.225 234.953 160.933 233.936 160.35C232.92 159.75 232.12 158.917 231.536 157.85C230.97 156.767 230.686 155.517 230.686 154.1ZM259.251 153.775C259.251 154.292 259.218 154.758 259.151 155.175H248.626C248.71 156.275 249.118 157.158 249.851 157.825C250.585 158.492 251.485 158.825 252.551 158.825C254.085 158.825 255.168 158.183 255.801 156.9H258.876C258.46 158.167 257.701 159.208 256.601 160.025C255.518 160.825 254.168 161.225 252.551 161.225C251.235 161.225 250.051 160.933 249.001 160.35C247.968 159.75 247.151 158.917 246.551 157.85C245.968 156.767 245.676 155.517 245.676 154.1C245.676 152.683 245.96 151.442 246.526 150.375C247.11 149.292 247.918 148.458 248.951 147.875C250.001 147.292 251.201 147 252.551 147C253.851 147 255.01 147.283 256.026 147.85C257.043 148.417 257.835 149.217 258.401 150.25C258.968 151.267 259.251 152.442 259.251 153.775ZM256.276 152.875C256.26 151.825 255.885 150.983 255.151 150.35C254.418 149.717 253.51 149.4 252.426 149.4C251.443 149.4 250.601 149.717 249.901 150.35C249.201 150.967 248.785 151.808 248.651 152.875H256.276Z" fill="url(#paint1_linear_21_149)"/>
<defs>
<linearGradient id="paint0_linear_21_149" x1="1.1631e-06" y1="11.5" x2="356.5" y2="208" gradientUnits="userSpaceOnUse">
<stop stop-color="#5AFF7E"/>
<stop offset="1" stop-color="#FFDA1A"/>
</linearGradient>
<linearGradient id="paint1_linear_21_149" x1="187" y1="57" x2="187" y2="171" gradientUnits="userSpaceOnUse">
<stop stop-color="#5AFF7E"/>
<stop offset="1" stop-color="#FFDA1A"/>
</linearGradient>
</defs>
</svg>
